SplineFontDB: 3.0
FontName: IopsysGUIicon2016
FullName: IopsysGUI_icon2016
FamilyName: IopsysGUI_icon2016
Weight: Book
Copyright: 
Version: 1.000
ItalicAngle: 0
UnderlinePosition: -151
UnderlineWidth: 50
Ascent: 768
Descent: 256
InvalidEm: 0
sfntRevision: 0x00010000
LayerCount: 2
Layer: 0 1 "Back" 1
Layer: 1 1 "Fore" 0
XUID: [1021 448 -68258598 4550924]
StyleMap: 0x0040
FSType: 4
OS2Version: 3
OS2_WeightWidthSlopeOnly: 0
OS2_UseTypoMetrics: 0
CreationTime: 1470743021
ModificationTime: 1471536173
PfmFamily: 81
TTFWeight: 400
TTFWidth: 5
LineGap: 0
VLineGap: 0
Panose: 0 0 0 0 0 0 0 0 0 0
OS2TypoAscent: 768
OS2TypoAOffset: 0
OS2TypoDescent: -256
OS2TypoDOffset: 0
OS2TypoLinegap: 0
OS2WinAscent: 1056
OS2WinAOffset: 0
OS2WinDescent: 48
OS2WinDOffset: 0
HheadAscent: 768
HheadAOffset: 0
HheadDescent: -256
HheadDOffset: 0
OS2SubXSize: 717
OS2SubYSize: 666
OS2SubXOff: 0
OS2SubYOff: 143
OS2SupXSize: 717
OS2SupYSize: 666
OS2SupXOff: 0
OS2SupYOff: 488
OS2StrikeYSize: 51
OS2StrikeYPos: 256
OS2CapHeight: 700
OS2XHeight: 500
OS2Vendor: 'pyrs'
OS2CodePages: 00000001.00000000
OS2UnicodeRanges: 00000001.00000040.00000000.00000000
MarkAttachClasses: 1
DEI: 91125
TtTable: prep
PUSHW_1
 0
CALL
SVTCA[y-axis]
PUSHW_3
 1
 5
 2
CALL
SVTCA[x-axis]
PUSHW_3
 6
 4
 2
CALL
SVTCA[x-axis]
PUSHW_8
 6
 59
 48
 43
 30
 20
 0
 8
CALL
PUSHW_8
 7
 149
 130
 101
 73
 44
 0
 8
CALL
PUSHW_8
 8
 85
 65
 61
 44
 20
 0
 8
CALL
PUSHW_8
 9
 33
 27
 21
 15
 9
 0
 8
CALL
SVTCA[y-axis]
PUSHW_8
 1
 178
 130
 101
 73
 44
 0
 8
CALL
PUSHW_8
 2
 149
 130
 101
 73
 44
 0
 8
CALL
PUSHW_8
 3
 104
 82
 61
 44
 28
 0
 8
CALL
PUSHW_8
 4
 97
 82
 61
 44
 28
 0
 8
CALL
PUSHW_8
 5
 73
 65
 43
 30
 20
 0
 8
CALL
SVTCA[y-axis]
PUSHW_3
 10
 3
 7
CALL
PUSHW_1
 0
DUP
RCVT
RDTG
ROUND[Black]
RTG
WCVTP
EndTTInstrs
TtTable: fpgm
PUSHW_1
 0
FDEF
MPPEM
PUSHW_1
 9
LT
IF
PUSHB_2
 1
 1
INSTCTRL
EIF
PUSHW_1
 511
SCANCTRL
PUSHW_1
 68
SCVTCI
PUSHW_2
 9
 3
SDS
SDB
ENDF
PUSHW_1
 1
FDEF
DUP
DUP
RCVT
ROUND[Black]
WCVTP
PUSHB_1
 1
ADD
ENDF
PUSHW_1

StartChar: minus
Encoding: 0 0 0
Width: 1024
VWidth: 904
Flags: W
LayerCount: 2
Fore
SplineSet
158 469 m 1,0,-1
 856 469 l 1,1,-1
 856 314 l 1,2,-1
 158 314 l 5,3,-1
 158 469 l 1,0,-1
EndSplineSet
Validated: 1
EndChar

StartChar: NameMe.43
Encoding: 1 1 1
Width: 1127
VWidth: 1187
Flags: W
LayerCount: 2
Fore
SplineSet
920 274 m 1,0,-1
 628 274 l 1,1,-1
 628 -70 l 1,2,-1
 390 -70 l 1,3,-1
 390 274 l 1,4,-1
 87 274 l 1,5,-1
 87 472 l 1,6,-1
 390 472 l 1,7,-1
 390 764 l 1,8,-1
 628 764 l 1,9,-1
 628 472 l 1,10,-1
 920 472 l 1,11,-1
 920 274 l 1,0,-1
EndSplineSet
Validated: 1
EndChar

StartChar: circle_minus
Encoding: 2 2 2
Width: 1000
VWidth: 800
Flags: W
LayerCount: 2
Fore
SplineSet
789 589 m 0,0,1
 910 470 910 470 910 300 c 128,-1,2
 910 130 910 130 790 10 c 128,-1,3
 670 -110 670 -110 500 -110 c 128,-1,4
 330 -110 330 -110 210 10 c 128,-1,5
 90 130 90 130 90 300 c 128,-1,6
 90 470 90 470 210 590 c 128,-1,7
 330 710 330 710 500 710 c 128,-1,8
 670 710 670 710 789 589 c 0,0,1
740 362 m 1,9,-1
 260 362 l 1,10,-1
 260 237 l 1,11,-1
 740 237 l 1,12,-1
 740 362 l 1,9,-1
EndSplineSet
Validated: 1
EndChar

StartChar: circle_plus
Encoding: 3 3 3
Width: 1000
VWidth: 800
Flags: W
LayerCount: 2
Fore
SplineSet
789 589 m 256,0,1
 910 468 910 468 910 300 c 0,2,3
 910 130 910 130 789 9 c 0,4,5
 670 -110 670 -110 500 -110 c 0,6,7
 328 -110 328 -110 209 9 c 256,8,9
 90 128 90 128 90 300 c 0,10,11
 90 470 90 470 209 589 c 0,12,13
 330 710 330 710 500 710 c 0,14,15
 668 710 668 710 789 589 c 256,0,1
740 362 m 1,16,-1
 562 362 l 1,17,-1
 562 540 l 1,18,-1
 437 540 l 1,19,-1
 437 362 l 1,20,-1
 260 362 l 1,21,-1
 260 237 l 1,22,-1
 437 237 l 1,23,-1
 437 60 l 1,24,-1
 562 60 l 1,25,-1
 562 237 l 1,26,-1
 740 237 l 1,27,-1
 740 362 l 1,16,-1
EndSplineSet
Validated: 1
EndChar

StartChar: reload
Encoding: 4 4 4
Width: 1046
VWidth: 844
Flags: W
LayerCount: 2
Fore
SplineSet
932 660 m 1,0,-1
 932 326 l 1,1,-1
 643 475 l 1,2,-1
 739 535 l 2,3,4
 735 537 735 537 726 552.5 c 128,-1,5
 717 568 717 568 694.5 584 c 128,-1,6
 672 600 672 600 633 613.5 c 128,-1,7
 594 627 594 627 532 627 c 0,8,9
 403 627 403 627 323.5 547 c 128,-1,10
 244 467 244 467 244 326 c 0,11,12
 244 213 244 213 321.5 139.5 c 128,-1,13
 399 66 399 66 535 66 c 0,14,15
 560 66 560 66 592.5 72 c 128,-1,16
 625 78 625 78 655.5 92.5 c 128,-1,17
 686 107 686 107 711.5 127 c 128,-1,18
 737 147 737 147 750 176 c 1,19,-1
 895 103 l 1,20,21
 814 16 814 16 729.5 -34 c 128,-1,22
 645 -84 645 -84 535 -84 c 0,23,24
 441 -84 441 -84 361 -51 c 128,-1,25
 281 -18 281 -18 223.5 37 c 128,-1,26
 166 92 166 92 133 167 c 128,-1,27
 100 242 100 242 100 326 c 0,28,29
 100 424 100 424 133 506 c 128,-1,30
 166 588 166 588 223.5 647.5 c 128,-1,31
 281 707 281 707 360.5 739.5 c 128,-1,32
 440 772 440 772 535 772 c 0,33,34
 595 772 595 772 642.5 758 c 128,-1,35
 690 744 690 744 727 720.5 c 128,-1,36
 764 697 764 697 792.5 668 c 128,-1,37
 821 639 821 639 848 611 c 1,38,-1
 932 660 l 1,0,-1
EndSplineSet
Validated: 1
EndChar

StartChar: stop
Encoding: 5 5 5
Width: 1046
VWidth: 844
Flags: W
LayerCount: 2
Fore
SplineSet
524 770 m 256,0,1
 612 770 612 770 690 736.5 c 128,-1,2
 768 703 768 703 825.5 645.5 c 128,-1,3
 883 588 883 588 916.5 510 c 128,-1,4
 950 432 950 432 950 344 c 256,5,6
 950 256 950 256 916.5 178.5 c 128,-1,7
 883 101 883 101 825.5 43.5 c 128,-1,8
 768 -14 768 -14 690 -48 c 128,-1,9
 612 -82 612 -82 524 -82 c 256,10,11
 436 -82 436 -82 358.5 -48 c 128,-1,12
 281 -14 281 -14 223.5 43.5 c 128,-1,13
 166 101 166 101 132 178.5 c 128,-1,14
 98 256 98 256 98 344 c 256,15,16
 98 432 98 432 132 510 c 128,-1,17
 166 588 166 588 223.5 645.5 c 128,-1,18
 281 703 281 703 358.5 736.5 c 128,-1,19
 436 770 436 770 524 770 c 256,0,1
756 578 m 1,20,-1
 287 578 l 1,21,-1
 287 107 l 1,22,-1
 756 107 l 1,23,-1
 756 578 l 1,20,-1
EndSplineSet
Validated: 1
EndChar

StartChar: play
Encoding: 6 6 6
Width: 1046
VWidth: 844
Flags: W
LayerCount: 2
Fore
SplineSet
524 772 m 256,0,1
 612 772 612 772 690 738.5 c 128,-1,2
 768 705 768 705 826.5 647.5 c 128,-1,3
 885 590 885 590 918.5 512 c 128,-1,4
 952 434 952 434 952 346 c 256,5,6
 952 258 952 258 918.5 180.5 c 128,-1,7
 885 103 885 103 826.5 44.5 c 128,-1,8
 768 -14 768 -14 690 -48 c 128,-1,9
 612 -82 612 -82 524 -82 c 256,10,11
 436 -82 436 -82 358.5 -48 c 128,-1,12
 281 -14 281 -14 223.5 44.5 c 128,-1,13
 166 103 166 103 132 180.5 c 128,-1,14
 98 258 98 258 98 346 c 256,15,16
 98 434 98 434 132 512 c 128,-1,17
 166 590 166 590 223.5 647.5 c 128,-1,18
 281 705 281 705 358.5 738.5 c 128,-1,19
 436 772 436 772 524 772 c 256,0,1
786 348 m 1,20,-1
 350 588 l 1,21,-1
 350 105 l 1,22,-1
 786 348 l 1,20,-1
EndSplineSet
Validated: 1
EndChar

StartChar: pause
Encoding: 7 7 7
Width: 1046
VWidth: 844
Flags: W
LayerCount: 2
Fore
SplineSet
526 772 m 256,0,1
 614 772 614 772 692 738.5 c 128,-1,2
 770 705 770 705 827.5 647.5 c 128,-1,3
 885 590 885 590 918.5 512 c 128,-1,4
 952 434 952 434 952 346 c 256,5,6
 952 258 952 258 918.5 180.5 c 128,-1,7
 885 103 885 103 827.5 45.5 c 128,-1,8
 770 -12 770 -12 692 -46 c 128,-1,9
 614 -80 614 -80 526 -80 c 256,10,11
 438 -80 438 -80 360.5 -46 c 128,-1,12
 283 -12 283 -12 225.5 45.5 c 128,-1,13
 168 103 168 103 134 180.5 c 128,-1,14
 100 258 100 258 100 346 c 256,15,16
 100 434 100 434 134 512 c 128,-1,17
 168 590 168 590 225.5 647.5 c 128,-1,18
 283 705 283 705 360.5 738.5 c 128,-1,19
 438 772 438 772 526 772 c 256,0,1
453 576 m 1,20,-1
 326 576 l 1,21,-1
 326 113 l 1,22,-1
 453 113 l 1,23,-1
 453 576 l 1,20,-1
725 576 m 1,24,-1
 598 576 l 1,25,-1
 598 113 l 1,26,-1
 725 113 l 1,27,-1
 725 576 l 1,24,-1
EndSplineSet
Validated: 1
EndChar

StartChar: circle
Encoding: 8 8 8
Width: 1046
VWidth: 844
Flags: W
LayerCount: 2
Fore
SplineSet
98 344 m 256,0,1
 98 432 98 432 132 510 c 128,-1,2
 166 588 166 588 223.5 646.5 c 128,-1,3
 281 705 281 705 358.5 738.5 c 128,-1,4
 436 772 436 772 524 772 c 256,5,6
 612 772 612 772 690 738.5 c 128,-1,7
 768 705 768 705 826.5 646.5 c 128,-1,8
 885 588 885 588 918.5 510 c 128,-1,9
 952 432 952 432 952 344 c 256,10,11
 952 256 952 256 918.5 178.5 c 128,-1,12
 885 101 885 101 826.5 43.5 c 128,-1,13
 768 -14 768 -14 690 -48 c 128,-1,14
 612 -82 612 -82 524 -82 c 256,15,16
 436 -82 436 -82 358.5 -48 c 128,-1,17
 281 -14 281 -14 223.5 43.5 c 128,-1,18
 166 101 166 101 132 178.5 c 128,-1,19
 98 256 98 256 98 344 c 256,0,1
EndSplineSet
Validated: 1
EndChar

StartChar: circle_right
Encoding: 9 16 9
Width: 1046
VWidth: 844
Flags: W
LayerCount: 2
Fore
SplineSet
524 772 m 0,0,1
 612 772 612 772 691 738.5 c 128,-1,2
 770 705 770 705 827.5 647.5 c 128,-1,3
 885 590 885 590 918.5 511 c 128,-1,4
 952 432 952 432 952 344 c 0,5,6
 952 254 952 254 918.5 176.5 c 128,-1,7
 885 99 885 99 827.5 40.5 c 128,-1,8
 770 -18 770 -18 691 -51 c 128,-1,9
 612 -84 612 -84 524 -84 c 0,10,11
 383 -84 383 -84 274.5 -3 c 128,-1,12
 166 78 166 78 119 203 c 1,13,-1
 465 203 l 1,14,-1
 465 101 l 1,15,-1
 809 340 l 1,16,-1
 465 578 l 1,17,-1
 465 475 l 1,18,-1
 117 477 l 1,19,20
 137 539 137 539 177 594 c 128,-1,21
 217 649 217 649 271.5 689 c 128,-1,22
 326 729 326 729 389 750.5 c 128,-1,23
 452 772 452 772 524 772 c 0,0,1
EndSplineSet
Validated: 1
EndChar

StartChar: chevaron_right
Encoding: 10 17 10
Width: 1021
VWidth: 844
Flags: W
LayerCount: 2
Fore
SplineSet
874 365 m 1,0,-1
 186 0 l 1,1,-1
 186 688 l 1,2,-1
 874 365 l 1,0,-1
EndSplineSet
Validated: 1
EndChar

StartChar: chevaron_left
Encoding: 11 18 11
Width: 874
VWidth: 844
Flags: W
LayerCount: 2
Fore
SplineSet
874 690 m 1,0,-1
 874 2 l 1,1,-1
 186 367 l 1,2,-1
 874 690 l 1,0,-1
EndSplineSet
Validated: 1
EndChar

StartChar: chevaron_down
Encoding: 12 19 12
Width: 874
VWidth: 844
Flags: W
LayerCount: 2
Fore
SplineSet
182 688 m 1,0,-1
 870 688 l 1,1,-1
 506 0 l 1,2,-1
 182 688 l 1,0,-1
EndSplineSet
Validated: 1
EndChar

StartChar: chevaron_up
Encoding: 13 20 13
Width: 874
VWidth: 844
Flags: W
LayerCount: 2
Fore
SplineSet
870 0 m 1,0,-1
 182 0 l 1,1,-1
 547 688 l 1,2,-1
 870 0 l 1,0,-1
EndSplineSet
Validated: 1
EndChar

StartChar: NameMe.63
Encoding: 14 21 14
Width: 1049
VWidth: 844
Flags: W
LayerCount: 2
Fore
SplineSet
526 -83 m 256,0,1
 441 -83 441 -83 364.5 -51 c 128,-1,2
 288 -19 288 -19 227 41 c 0,3,4
 168 100 168 100 135.5 177.5 c 128,-1,5
 103 255 103 255 103 340 c 256,6,7
 103 425 103 425 135.5 502 c 128,-1,8
 168 579 168 579 227 639 c 256,9,10
 286 698 286 698 363.5 730.5 c 128,-1,11
 441 763 441 763 526 763 c 256,12,13
 611 763 611 763 688.5 731 c 128,-1,14
 766 699 766 699 825 639 c 0,15,16
 885 580 885 580 917 502.5 c 128,-1,17
 949 425 949 425 949 340 c 256,18,19
 949 255 949 255 917.5 178 c 128,-1,20
 886 101 886 101 825 41 c 0,21,22
 766 -19 766 -19 688.5 -51 c 128,-1,23
 611 -83 611 -83 526 -83 c 256,0,1
526 694 m 0,24,25
 455 694 455 694 391 667 c 128,-1,26
 327 640 327 640 276 590 c 256,27,28
 226 540 226 540 199 475.5 c 128,-1,29
 172 411 172 411 172 340 c 0,30,31
 172 267 172 267 199 203 c 128,-1,32
 226 139 226 139 276 89 c 256,33,34
 326 39 326 39 391 12.5 c 128,-1,35
 456 -14 456 -14 526 -14 c 0,36,37
 599 -14 599 -14 662.5 12.5 c 128,-1,38
 726 39 726 39 776 89 c 256,39,40
 826 139 826 139 853.5 203 c 128,-1,41
 881 267 881 267 881 340 c 0,42,43
 881 411 881 411 853.5 475 c 128,-1,44
 826 539 826 539 776 590 c 256,45,46
 726 640 726 640 662.5 667 c 128,-1,47
 599 694 599 694 526 694 c 0,24,25
567 213 m 1,48,-1
 480 213 l 1,49,-1
 480 236 l 2,50,51
 480 277 480 277 493 304 c 0,52,53
 500 318 500 318 513.5 332.5 c 128,-1,54
 527 347 527 347 549 365 c 0,55,56
 569 381 569 381 582 393 c 128,-1,57
 595 405 595 405 599 411 c 0,58,59
 612 427 612 427 612 447 c 0,60,61
 612 475 612 475 589 494 c 0,62,63
 570 513 570 513 530 514 c 0,64,65
 493 514 493 514 470 493 c 0,66,67
 444 475 444 475 435 430 c 1,68,-1
 348 441 l 1,69,70
 351 501 351 501 399 544 c 0,71,72
 446 588 446 588 525 588 c 0,73,74
 608 588 608 588 655 544 c 0,75,76
 704 501 704 501 705 444 c 0,77,78
 705 412 705 412 686 384 c 0,79,80
 678 370 678 370 659 351 c 128,-1,81
 640 332 640 332 611 306 c 0,82,83
 597 295 597 295 587 285.5 c 4,84,85
 579 278 579 278 573 267 c 128,-1,86
 567 256 567 256 567 235 c 0,87,88
 567 232 567 232 567 228 c 0,89,90
 567 226 567 226 567 213 c 1,48,-1
480 85 m 1,91,-1
 480 179 l 1,92,-1
 575 179 l 1,93,-1
 575 85 l 1,94,-1
 480 85 l 1,91,-1
EndSplineSet
Validated: 1
EndChar

StartChar: expand
Encoding: 15 22 15
Width: 1051
VWidth: 844
Flags: W
LayerCount: 2
Fore
SplineSet
951 768 m 1,0,-1
 951 423 l 1,1,-1
 830 544 l 1,2,-1
 644 358 l 1,3,-1
 540 461 l 1,4,-1
 728 646 l 1,5,-1
 606 768 l 1,6,-1
 951 768 l 1,0,-1
327 43 m 1,7,-1
 447 -79 l 1,8,-1
 103 -79 l 1,9,-1
 103 265 l 1,10,-1
 224 146 l 1,11,-1
 412 332 l 1,12,-1
 515 229 l 1,13,-1
 327 43 l 1,7,-1
EndSplineSet
Validated: 1
EndChar

StartChar: bridge
Encoding: 16 32 16
Width: 962
VWidth: 914
Flags: W
LayerCount: 2
Fore
SplineSet
911 599 m 1,0,-1
 43 599 l 1,1,-1
 43 633 l 1,2,-1
 911 633 l 1,3,-1
 911 599 l 1,0,-1
834 214 m 1,4,5
 879 214 879 214 913 238 c 1,6,-1
 913 175 l 1,7,8
 870 156 870 156 823 156 c 0,9,10
 778 156 778 156 739 175 c 1,11,12
 698 156 698 156 651 156 c 0,13,14
 602 156 602 156 565 175 c 1,15,16
 524 156 524 156 477 156 c 0,17,18
 428 156 428 156 389 175 c 1,19,20
 352 156 352 156 303 156 c 256,21,22
 254 156 254 156 215 175 c 1,23,24
 174 156 174 156 131 156 c 0,25,26
 82 156 82 156 43 175 c 1,27,-1
 43 238 l 1,28,29
 57 230 57 230 73.5 223 c 128,-1,30
 90 216 90 216 109 216 c 1,31,-1
 109 345 l 1,32,-1
 109 367 l 1,33,-1
 109 408 l 2,34,35
 109 434 109 434 90.5 454 c 128,-1,36
 72 474 72 474 43 474 c 1,37,-1
 43 549 l 1,38,-1
 911 549 l 1,39,-1
 911 474 l 1,40,-1
 905 474 l 2,41,42
 876 474 876 474 855 454.5 c 128,-1,43
 834 435 834 435 834 408 c 1,44,-1
 834 367 l 1,45,-1
 834 345 l 1,46,-1
 834 214 l 1,4,5
565 240 m 1,47,48
 598 214 598 214 651 214 c 0,49,50
 684 214 684 214 709 226 c 1,51,-1
 709 345 l 1,52,-1
 709 367 l 1,53,-1
 709 408 l 2,54,55
 709 436 709 436 688.5 455 c 128,-1,56
 668 474 668 474 639 474 c 2,57,-1
 305 474 l 2,58,59
 276 474 276 474 254.5 454.5 c 128,-1,60
 233 435 233 435 233 406 c 2,61,-1
 233 367 l 1,62,-1
 233 345 l 1,63,-1
 233 230 l 1,64,65
 270 214 270 214 303 214 c 0,66,67
 356 214 356 214 389 240 c 1,68,69
 424 214 424 214 477 214 c 256,70,71
 530 214 530 214 565 240 c 1,47,48
739 115 m 1,72,73
 776 85 776 85 823 85 c 0,74,75
 876 85 876 85 913 115 c 1,76,-1
 913 46 l 1,77,78
 864 30 864 30 823 30 c 0,79,80
 784 30 784 30 739 46 c 1,81,82
 694 30 694 30 651 30 c 256,83,84
 608 30 608 30 565 46 c 1,85,86
 520 30 520 30 477 30 c 256,87,88
 434 30 434 30 389 46 c 1,89,90
 346 30 346 30 303 30 c 256,91,92
 260 30 260 30 215 46 c 1,93,94
 170 30 170 30 131 30 c 0,95,96
 88 30 88 30 43 46 c 1,97,-1
 43 115 l 1,98,99
 76 85 76 85 131 85 c 0,100,101
 178 85 178 85 213 113 c 1,102,-1
 215 115 l 1,103,-1
 217 113 l 1,104,105
 252 85 252 85 303 85 c 0,106,107
 358 85 358 85 389 115 c 1,108,109
 405 99 405 99 429 92 c 128,-1,110
 453 85 453 85 477 85 c 0,111,112
 530 85 530 85 565 115 c 1,113,114
 596 85 596 85 651 85 c 0,115,116
 702 85 702 85 739 115 c 1,72,73
EndSplineSet
Validated: 1
EndChar

StartChar: adsl
Encoding: 17 33 17
Width: 1046
VWidth: 874
Flags: W
LayerCount: 2
Fore
SplineSet
524 -53 m 0,0,1
 439 -53 439 -53 364 -21.5 c 128,-1,2
 289 10 289 10 228 69 c 256,3,4
 169 128 169 128 137 204.5 c 128,-1,5
 105 281 105 281 105 366 c 0,6,7
 105 449 105 449 137 525 c 128,-1,8
 169 601 169 601 228 661 c 256,9,10
 287 720 287 720 363 752 c 128,-1,11
 439 784 439 784 524 784 c 0,12,13
 608 784 608 784 684 752 c 128,-1,14
 760 720 760 720 820 661 c 256,15,16
 879 602 879 602 910.5 525.5 c 128,-1,17
 942 449 942 449 942 366 c 0,18,19
 942 281 942 281 911 205 c 128,-1,20
 880 129 880 129 820 69 c 256,21,22
 761 10 761 10 684.5 -21.5 c 128,-1,23
 608 -53 608 -53 524 -53 c 0,0,1
524 715 m 0,24,25
 453 715 453 715 389.5 689.5 c 128,-1,26
 326 664 326 664 275 613 c 256,27,28
 225 563 225 563 199.5 499.5 c 128,-1,29
 174 436 174 436 174 366 c 256,30,31
 174 295 174 295 199.5 231.5 c 128,-1,32
 225 168 225 168 275 118 c 256,33,34
 325 68 325 68 389.5 41.5 c 128,-1,35
 454 15 454 15 524 15 c 0,36,37
 596 15 596 15 659 41.5 c 128,-1,38
 722 68 722 68 772 118 c 256,39,40
 822 168 822 168 848 231.5 c 128,-1,41
 874 295 874 295 874 366 c 256,42,43
 874 437 874 437 848 500 c 128,-1,44
 822 563 822 563 772 613 c 256,45,46
 722 663 722 663 659 689 c 128,-1,47
 596 715 596 715 524 715 c 0,24,25
781 155 m 1,48,-1
 671 155 l 1,49,-1
 630 267 l 1,50,-1
 433 267 l 1,51,-1
 392 155 l 1,52,-1
 287 155 l 1,53,-1
 479 648 l 1,54,-1
 584 648 l 1,55,-1
 781 155 l 1,48,-1
597 350 m 1,56,-1
 529 533 l 1,57,-1
 463 350 l 1,58,-1
 597 350 l 1,56,-1
EndSplineSet
Validated: 1
EndChar

StartChar: vdsl
Encoding: 18 34 18
Width: 1046
VWidth: 874
Flags: W
LayerCount: 2
Fore
SplineSet
525 -52 m 0,0,1
 439 -52 439 -52 362.5 -19.5 c 128,-1,2
 286 13 286 13 225 73 c 0,3,4
 164 132 164 132 132 210.5 c 128,-1,5
 100 289 100 289 100 374 c 0,6,7
 100 460 100 460 132 537 c 128,-1,8
 164 614 164 614 225 676 c 0,9,10
 284 735 284 735 361.5 767.5 c 128,-1,11
 439 800 439 800 525 800 c 0,12,13
 610 800 610 800 688.5 768 c 128,-1,14
 767 736 767 736 826 676 c 0,15,16
 886 615 886 615 918.5 537.5 c 128,-1,17
 951 460 951 460 951 374 c 0,18,19
 951 289 951 289 919 211 c 128,-1,20
 887 133 887 133 826 73 c 0,21,22
 767 13 767 13 688.5 -19.5 c 128,-1,23
 610 -52 610 -52 525 -52 c 0,0,1
525 731 m 256,24,25
 452 731 452 731 388 704 c 128,-1,26
 324 677 324 677 272 627 c 0,27,28
 222 576 222 576 195.5 511.5 c 128,-1,29
 169 447 169 447 169 374 c 0,30,31
 169 302 169 302 195.5 237.5 c 128,-1,32
 222 173 222 173 272 122 c 0,33,34
 323 71 323 71 388 44.5 c 128,-1,35
 453 18 453 18 525 18 c 256,36,37
 598 18 598 18 663 44.5 c 128,-1,38
 728 71 728 71 778 122 c 0,39,40
 828 172 828 172 855 237.5 c 128,-1,41
 882 303 882 303 882 374 c 0,42,43
 882 447 882 447 855 511.5 c 128,-1,44
 828 576 828 576 778 627 c 0,45,46
 728 677 728 677 663 704 c 128,-1,47
 598 731 598 731 525 731 c 256,24,25
476 101 m 1,48,-1
 297 600 l 1,49,-1
 407 600 l 1,50,-1
 532 231 l 1,51,-1
 655 600 l 1,52,-1
 763 600 l 1,53,-1
 583 101 l 1,54,-1
 476 101 l 1,48,-1
EndSplineSet
Validated: 1
EndChar

StartChar: world
Encoding: 19 35 19
Width: 1048
VWidth: 864
Flags: W
HStem: 108 64<186 283 367 492 557 682 766 862> 334 63<100 262 326 492 557 720 786 948> 557 63<186 283 367 492 557 682 766 862>
VStem: 35 65<226.573 334 397 502.427> 262 64<174.685 334 397 554.346> 492 65<-56 108 172 334 397 557 620 782> 700 66<172 331.53 399.808 557> 948 66<227.623 334 397 501.377>
LayerCount: 2
Fore
SplineSet
524 854 m 0,0,1
 725 854 725 854 869.5 709.5 c 128,-1,2
 1014 565 1014 565 1014 364.5 c 128,-1,3
 1014 164 1014 164 869.5 19.5 c 128,-1,4
 725 -125 725 -125 524.5 -125 c 128,-1,5
 324 -125 324 -125 179.5 18.5 c 128,-1,6
 35 162 35 162 35 364.5 c 128,-1,7
 35 567 35 567 178 710.5 c 128,-1,8
 321 854 321 854 524 854 c 0,0,1
100 334 m 1,9,10
 106 250 106 250 145 172 c 1,11,-1
 283 172 l 1,12,13
 265 258 265 258 262 334 c 1,14,-1
 100 334 l 1,9,10
682 620 m 1,15,16
 634 757 634 757 557 782 c 1,17,-1
 557 620 l 1,18,-1
 682 620 l 1,15,16
557 557 m 1,19,-1
 557 397 l 1,20,-1
 720 397 l 1,21,22
 717 487 717 487 700 557 c 1,23,-1
 557 557 l 1,19,-1
492 782 m 1,24,25
 415 757 415 757 367 620 c 1,26,-1
 492 620 l 1,27,-1
 492 782 l 1,24,25
348 557 m 1,28,29
 328 478 328 478 326 397 c 1,30,-1
 492 397 l 1,31,-1
 492 557 l 1,32,-1
 348 557 l 1,28,29
262 397 m 1,33,34
 264 472 264 472 283 557 c 1,35,-1
 145 557 l 1,36,37
 106 478 106 478 100 397 c 1,38,-1
 262 397 l 1,33,34
326 334 m 1,39,40
 327 250 327 250 348 172 c 1,41,-1
 492 172 l 1,42,-1
 492 334 l 1,43,-1
 326 334 l 1,39,40
367 108 m 1,44,45
 415 -27 415 -27 492 -56 c 1,46,-1
 492 108 l 1,47,-1
 367 108 l 1,44,45
557 -56 m 1,48,49
 634 -27 634 -27 682 108 c 1,50,-1
 557 108 l 1,51,-1
 557 -56 l 1,48,49
700 172 m 1,52,53
 719 255 719 255 720 334 c 1,54,-1
 557 334 l 1,55,-1
 557 172 l 1,56,-1
 700 172 l 1,52,53
786 334 m 1,57,58
 784 257 784 257 766 172 c 1,59,-1
 903 172 l 1,60,61
 942 251 942 251 948 334 c 1,62,-1
 786 334 l 1,57,58
948 397 m 1,63,64
 942 479 942 479 903 557 c 1,65,-1
 766 557 l 1,66,67
 784 471 784 471 786 397 c 1,68,-1
 948 397 l 1,63,64
862 620 m 1,69,70
 788 718 788 718 680 760 c 1,71,72
 725 699 725 699 748 620 c 1,73,-1
 862 620 l 1,69,70
369 760 m 1,74,75
 260 719 260 719 186 620 c 1,76,-1
 301 620 l 1,77,78
 324 699 324 699 369 760 c 1,74,75
186 108 m 1,79,80
 256 12 256 12 369 -31 c 1,81,82
 324 30 324 30 301 108 c 1,83,-1
 186 108 l 1,79,80
680 -31 m 1,84,85
 794 12 794 12 862 108 c 1,86,-1
 748 108 l 1,87,88
 725 30 725 30 680 -31 c 1,84,85
EndSplineSet
Validated: 1
EndChar

StartChar: network
Encoding: 20 36 20
Width: 1048
VWidth: 904
Flags: W
LayerCount: 2
Fore
SplineSet
682 240 m 1,0,-1
 756 240 l 1,1,-1
 756 40 l 1,2,-1
 557 40 l 1,3,-1
 557 240 l 1,4,-1
 625 240 l 1,5,-1
 625 386 l 1,6,-1
 213 386 l 1,7,8
 203 349 203 349 174 326.5 c 128,-1,9
 145 304 145 304 109 304 c 0,10,11
 64 304 64 304 32 336.5 c 128,-1,12
 0 369 0 369 0 414.5 c 128,-1,13
 0 460 0 460 31.5 492.5 c 128,-1,14
 63 525 63 525 109 525 c 0,15,16
 146 525 146 525 174.5 502.5 c 128,-1,17
 203 480 203 480 213 443 c 1,18,-1
 414 443 l 1,19,-1
 414 568 l 1,20,-1
 340 568 l 1,21,-1
 340 769 l 1,22,-1
 539 769 l 1,23,-1
 539 568 l 1,24,-1
 471 568 l 1,25,-1
 471 443 l 1,26,-1
 836 443 l 1,27,-1
 836 568 l 1,28,-1
 762 568 l 1,29,-1
 762 769 l 1,30,-1
 961 769 l 1,31,-1
 961 568 l 1,32,-1
 893 568 l 1,33,-1
 893 443 l 1,34,-1
 1047 443 l 1,35,-1
 1047 386 l 1,36,-1
 682 386 l 1,37,-1
 682 240 l 1,0,-1
EndSplineSet
Validated: 1
EndChar

StartChar: usb
Encoding: 21 37 21
Width: 1048
VWidth: 874
Flags: W
LayerCount: 2
Fore
SplineSet
758 644 m 1,0,-1
 758 503 l 1,1,-1
 719 503 l 1,2,-1
 719 458 l 2,3,4
 719 411 719 411 698 389 c 0,5,6
 690 381 690 381 659 354 c 0,7,8
 649 345 649 345 615.5 311.5 c 128,-1,9
 582 278 582 278 569 266 c 1,10,-1
 569 51 l 1,11,12
 634 26 634 26 635 -46 c 0,13,14
 635 -89 635 -89 605 -118.5 c 128,-1,15
 575 -148 575 -148 532 -148 c 128,-1,16
 489 -148 489 -148 459.5 -118.5 c 128,-1,17
 430 -89 430 -89 430 -46 c 0,18,19
 430 26 430 26 496 51 c 1,20,-1
 496 114 l 1,21,-1
 397 208 l 2,22,23
 360 240 360 240 358 243 c 0,24,25
 340 267 340 267 340 313 c 2,26,-1
 340 389 l 1,27,28
 291 406 291 406 291 458 c 0,29,30
 291 489 291 489 314.5 511.5 c 128,-1,31
 338 534 338 534 370.5 534 c 128,-1,32
 403 534 403 534 428 511.5 c 128,-1,33
 453 489 453 489 453 458 c 0,34,35
 453 407 453 407 403 389 c 1,36,-1
 403 313 l 2,37,38
 403 288 403 288 412 280 c 0,39,40
 422 271 422 271 442 251 c 0,41,42
 448 245 448 245 466.5 227.5 c 128,-1,43
 485 210 485 210 496 200 c 1,44,-1
 496 681 l 1,45,-1
 428 681 l 1,46,-1
 532 899 l 1,47,-1
 639 681 l 1,48,-1
 569 681 l 1,49,-1
 569 354 l 1,50,51
 587 370 587 370 614 397 c 0,52,53
 622 405 622 405 634 413 c 0,54,55
 647 422 647 422 647 423 c 0,56,57
 653 440 653 440 653 458 c 2,58,-1
 653 503 l 1,59,-1
 614 503 l 1,60,-1
 614 641 l 1,61,-1
 758 644 l 1,0,-1
EndSplineSet
Validated: 1
EndChar

StartChar: ethernet
Encoding: 22 38 22
Width: 834
VWidth: 970
Flags: W
LayerCount: 2
Fore
SplineSet
773 720 m 1,0,-1
 773 68 l 1,1,-1
 494 68 l 1,2,-1
 494 157 l 1,3,-1
 578 157 l 1,4,-1
 578 245 l 1,5,-1
 682 245 l 1,6,-1
 682 595 l 1,7,-1
 166 595 l 1,8,-1
 166 245 l 1,9,-1
 270 245 l 1,10,-1
 270 157 l 1,11,-1
 355 157 l 1,12,-1
 355 68 l 1,13,-1
 68 68 l 1,14,-1
 68 720 l 1,15,-1
 773 720 l 1,0,-1
619 552 m 1,16,-1
 619 437 l 1,17,-1
 562 437 l 1,18,-1
 562 552 l 1,19,-1
 619 552 l 1,16,-1
506 552 m 1,20,-1
 506 437 l 1,21,-1
 449 437 l 1,22,-1
 449 552 l 1,23,-1
 506 552 l 1,20,-1
395 552 m 1,24,-1
 395 437 l 1,25,-1
 336 437 l 1,26,-1
 336 552 l 1,27,-1
 395 552 l 1,24,-1
283 552 m 1,28,-1
 283 437 l 1,29,-1
 227 437 l 1,30,-1
 227 552 l 1,31,-1
 283 552 l 1,28,-1
EndSplineSet
Validated: 1
EndChar

StartChar: bluethooth
Encoding: 23 39 23
Width: 1000
VWidth: 860
Flags: W
LayerCount: 2
Fore
SplineSet
453 -79 m 1,0,-1
 455 272 l 1,1,-1
 326 139 l 1,2,-1
 275 188 l 1,3,-1
 447 360 l 1,4,-1
 277 532 l 1,5,-1
 326 581 l 1,6,-1
 457 448 l 1,7,-1
 461 797 l 1,8,-1
 723 542 l 1,9,-1
 545 360 l 1,10,-1
 725 182 l 1,11,-1
 453 -79 l 1,0,-1
527 442 m 1,12,-1
 625 542 l 1,13,-1
 529 635 l 1,14,-1
 527 442 l 1,12,-1
523 85 m 1,15,-1
 625 182 l 1,16,-1
 525 282 l 1,17,-1
 523 85 l 1,15,-1
EndSplineSet
Validated: 1
EndChar

StartChar: radio1
Encoding: 24 40 24
Width: 1084
VWidth: 994
Flags: W
LayerCount: 2
Fore
SplineSet
477 548 m 128,-1,1
 500 571 500 571 532 571 c 0,2,3
 532 570 532 570 533 570 c 0,4,5
 565 570 565 570 589 548 c 128,-1,6
 613 526 613 526 613 492 c 0,7,8
 613 491 613 491 612 490 c 0,9,10
 612 459 612 459 589 435 c 0,11,12
 587 433 587 433 587 433 c 0,13,14
 586 433 586 433 584 431 c 2,15,-1
 584 107 l 1,16,-1
 485 107 l 1,17,-1
 485 431 l 1,18,-1
 477 435 l 0,19,20
 454 461 454 461 454 492 c 0,21,0
 454 525 454 525 477 548 c 128,-1,1
758 690 m 1,22,23
 797 649 797 649 818.5 599.5 c 128,-1,24
 840 550 840 550 840 494 c 0,25,26
 840 435 840 435 818.5 383.5 c 128,-1,27
 797 332 797 332 758 294 c 1,28,-1
 688 363 l 1,29,30
 741 422 741 422 741 494 c 0,31,32
 741 529 741 529 727 562 c 128,-1,33
 713 595 713 595 688 621 c 1,34,-1
 758 690 l 1,22,23
907 814 m 1,35,36
 974 747 974 747 1007 666.5 c 128,-1,37
 1040 586 1040 586 1040 494 c 256,38,39
 1040 402 1040 402 1006.5 318 c 128,-1,40
 973 234 973 234 907 169 c 1,41,-1
 836 240 l 1,42,43
 939 343 939 343 940 494 c 0,44,45
 940 637 940 637 836 746 c 1,46,-1
 907 814 l 1,35,36
324 294 m 1,47,48
 284 333 284 333 263 384 c 128,-1,49
 242 435 242 435 242 494 c 0,50,51
 242 549 242 549 263.5 599.5 c 128,-1,52
 285 650 285 650 324 690 c 1,53,-1
 395 621 l 1,54,55
 340 566 340 566 340 494 c 256,56,57
 340 422 340 422 395 363 c 1,58,-1
 324 294 l 1,47,48
174 169 m 1,59,60
 109 236 109 236 75 319 c 128,-1,61
 41 402 41 402 41 494 c 256,62,63
 41 586 41 586 75 667 c 128,-1,64
 109 748 109 748 174 814 c 1,65,-1
 246 746 l 1,66,67
 196 693 196 693 167.5 629.5 c 128,-1,68
 139 566 139 566 139 494 c 0,69,70
 139 420 139 420 167 356 c 128,-1,71
 195 292 195 292 246 240 c 1,72,-1
 174 169 l 1,59,60
EndSplineSet
Validated: 1
EndChar

StartChar: radio2
Encoding: 25 41 25
Width: 1086
VWidth: 994
Flags: W
LayerCount: 2
Fore
SplineSet
762 697 m 1,0,1
 846 613 846 613 846 494 c 0,2,3
 846 373 846 373 762 289 c 1,4,-1
 688 363 l 1,5,6
 745 416 745 416 745 494 c 256,7,8
 745 572 745 572 688 625 c 1,9,-1
 762 697 l 1,0,1
913 824 m 1,10,11
 982 759 982 759 1016.5 673.5 c 128,-1,12
 1051 588 1051 588 1051 494 c 256,13,14
 1051 400 1051 400 1016 315 c 128,-1,15
 981 230 981 230 913 165 c 1,16,-1
 844 238 l 1,17,18
 895 287 895 287 922.5 355 c 128,-1,19
 950 423 950 423 950 494 c 256,20,21
 950 566 950 566 922.5 631.5 c 128,-1,22
 895 697 895 697 844 750 c 1,23,-1
 913 824 l 1,10,11
322 289 m 1,24,25
 238 373 238 373 238 494 c 0,26,27
 238 613 238 613 322 697 c 1,28,-1
 391 625 l 1,29,30
 366 598 366 598 352 564.5 c 128,-1,31
 338 531 338 531 338 494 c 256,32,33
 338 457 338 457 352.5 423.5 c 128,-1,34
 367 390 367 390 391 363 c 1,35,-1
 322 289 l 1,24,25
168 165 m 1,36,37
 103 230 103 230 68 315 c 128,-1,38
 33 400 33 400 33 494 c 256,39,40
 33 588 33 588 67.5 673 c 128,-1,41
 102 758 102 758 168 824 c 1,42,-1
 240 750 l 1,43,44
 189 697 189 697 161 631.5 c 128,-1,45
 133 566 133 566 133 494 c 256,46,47
 133 422 133 422 160.5 354.5 c 128,-1,48
 188 287 188 287 240 238 c 1,49,-1
 168 165 l 1,36,37
666 107 m 1,50,-1
 545 -79 l 1,51,-1
 422 107 l 1,52,-1
 494 107 l 1,53,-1
 494 433 l 2,54,55
 492 435 492 435 490.5 435 c 128,-1,56
 489 435 489 435 487 439 c 0,57,58
 464 462 464 462 464 490 c 0,59,60
 464 491 464 491 464 492 c 128,-1,62
 464 493 464 493 465 494 c 0,63,64
 465 525 465 525 487.5 549.5 c 128,-1,65
 510 574 510 574 544 574 c 0,66,67
 576 574 576 574 600 550 c 0,68,69
 626 524 626 524 626 494 c 0,70,71
 626 493 626 493 625 492 c 0,72,73
 625 461 625 461 600 439 c 0,74,75
 600 437 600 437 596 433 c 1,76,-1
 596 107 l 1,77,-1
 666 107 l 1,50,-1
EndSplineSet
Validated: 1
EndChar

StartChar: radio3
Encoding: 26 42 26
Width: 1048
VWidth: 874
Flags: W
LayerCount: 2
Fore
SplineSet
160 319 m 0,0,1
 137 343 137 343 137 375 c 128,-1,2
 137 407 137 407 159.5 429.5 c 128,-1,3
 182 452 182 452 215 452 c 128,-1,4
 248 452 248 452 270.5 429.5 c 128,-1,5
 293 407 293 407 293 374.5 c 128,-1,6
 293 342 293 342 270 319 c 0,7,8
 270 317 270 317 266 317 c 2,9,10
 264 315 l 2,11,-1
 264 -15 l 1,12,-1
 166 -15 l 1,13,-1
 166 315 l 2,14,15
 164 315 164 315 160 319 c 0,0,1
440 575 m 1,16,17
 522 493 522 493 522 374.5 c 128,-1,18
 522 256 522 256 440 174 c 1,19,-1
 369 245 l 1,20,21
 424 301 424 301 424 374 c 0,22,23
 424 375 424 375 424 375 c 0,24,25
 424 448 424 448 369 503 c 1,26,-1
 440 575 l 1,16,17
589 700 m 1,27,28
 724 561 724 561 725 374 c 0,29,30
 725 184 725 184 589 49 c 1,31,-1
 518 120 l 1,32,33
 624 221 624 221 624 374 c 0,34,35
 625 374 625 374 625 375 c 0,36,37
 625 526 625 526 518 628 c 1,38,-1
 589 700 l 1,27,28
729 815 m 1,39,40
 911 633 911 633 911 374.5 c 128,-1,41
 911 116 911 116 729 -66 c 1,42,-1
 659 6 l 1,43,44
 810 158 810 158 810 374 c 0,45,46
 811 375 811 375 811 376 c 0,47,48
 811 591 811 591 659 743 c 1,49,-1
 729 815 l 1,39,40
EndSplineSet
Validated: 1
EndChar

StartChar: wps
Encoding: 27 43 27
Width: 1049
VWidth: 890
Flags: W
LayerCount: 2
Fore
SplineSet
568 787 m 0,0,1
 596 787 596 787 616.5 776 c 128,-1,2
 637 765 637 765 649.5 746 c 128,-1,3
 662 727 662 727 668 702.5 c 128,-1,4
 674 678 674 678 674 651 c 0,5,6
 674 592 674 592 643 558.5 c 128,-1,7
 612 525 612 525 555 525 c 1,8,-1
 555 236 l 1,9,-1
 657 236 l 1,10,-1
 657 100 l 1,11,-1
 557 100 l 1,12,13
 553 89 553 89 551 79 c 128,-1,14
 549 69 549 69 545 62 c 128,-1,15
 541 55 541 55 534.5 51 c 128,-1,16
 528 47 528 47 515 47 c 0,17,18
 495 47 495 47 481.5 58 c 128,-1,19
 468 69 468 69 468 89 c 2,20,-1
 468 505 l 2,21,22
 468 518 468 518 464 521.5 c 128,-1,23
 460 525 460 525 454.5 525 c 128,-1,24
 449 525 449 525 442.5 524.5 c 128,-1,25
 436 524 436 524 431 530 c 0,26,27
 423 540 423 540 409.5 550 c 128,-1,28
 396 560 396 560 383.5 571 c 128,-1,29
 371 582 371 582 361.5 596 c 128,-1,30
 352 610 352 610 351 627 c 0,31,32
 350 635 350 635 350 642 c 128,-1,33
 350 649 350 649 350 657 c 0,34,35
 350 702 350 702 362 728 c 128,-1,36
 374 754 374 754 395.5 767.5 c 128,-1,37
 417 781 417 781 446.5 784.5 c 128,-1,38
 476 788 476 788 511 788 c 0,39,40
 525 788 525 788 539.5 787.5 c 128,-1,41
 554 787 554 787 568 787 c 0,0,1
600 638 m 0,42,43
 600 661 600 661 598.5 676 c 128,-1,44
 597 691 597 691 591.5 699.5 c 128,-1,45
 586 708 586 708 575.5 711 c 128,-1,46
 565 714 565 714 546 714 c 0,47,48
 538 714 538 714 529.5 713.5 c 128,-1,49
 521 713 521 713 513 713 c 256,50,51
 505 713 505 713 496 713.5 c 128,-1,52
 487 714 487 714 479 714 c 0,53,54
 444 714 444 714 433.5 701.5 c 128,-1,55
 423 689 423 689 423 657 c 0,56,57
 423 631 423 631 430 619 c 128,-1,58
 437 607 437 607 449 602 c 128,-1,59
 461 597 461 597 477 597.5 c 128,-1,60
 493 598 493 598 512 598 c 0,61,62
 527 598 527 598 542.5 598 c 128,-1,63
 558 598 558 598 570.5 601 c 128,-1,64
 583 604 583 604 591 612.5 c 128,-1,65
 599 621 599 621 600 638 c 0,42,43
845 684 m 1,66,67
 924 613 924 613 959.5 535 c 128,-1,68
 995 457 995 457 995 379 c 0,69,70
 995 298 995 298 961.5 221 c 128,-1,71
 928 144 928 144 869 81 c 1,72,-1
 815 132 l 1,73,74
 860 186 860 186 888.5 246 c 128,-1,75
 917 306 917 306 917 378 c 0,76,77
 917 455 917 455 881.5 516.5 c 128,-1,78
 846 578 846 578 793 628 c 1,79,80
 807 643 807 643 819.5 656.5 c 128,-1,81
 832 670 832 670 845 684 c 1,66,67
124 378 m 0,82,83
 127 304 127 304 161.5 245 c 128,-1,84
 196 186 196 186 248 135 c 1,85,86
 235 121 235 121 222 107.5 c 128,-1,87
 209 94 209 94 195 79 c 1,88,89
 162 111 162 111 134.5 144.5 c 128,-1,90
 107 178 107 178 87.5 215.5 c 128,-1,91
 68 253 68 253 57 295.5 c 128,-1,92
 46 338 46 338 46 387 c 0,93,94
 46 473 46 473 80 545.5 c 128,-1,95
 114 618 114 618 170 685 c 1,96,97
 186 671 186 671 199 658.5 c 128,-1,98
 212 646 212 646 226 633 c 1,99,100
 178 576 178 576 151 514.5 c 128,-1,101
 124 453 124 453 124 378 c 0,82,83
736 593 m 1,102,103
 796 544 796 544 822 489.5 c 128,-1,104
 848 435 848 435 848 380 c 0,105,106
 848 323 848 323 823 269 c 128,-1,107
 798 215 798 215 753 172 c 1,108,109
 739 186 739 186 723.5 200 c 128,-1,110
 708 214 708 214 692 228 c 1,111,112
 724 260 724 260 743.5 297.5 c 128,-1,113
 763 335 763 335 763 381 c 0,114,115
 763 430 763 430 738.5 465.5 c 128,-1,116
 714 501 714 501 679 533 c 1,117,118
 695 550 695 550 708.5 564.5 c 128,-1,119
 722 579 722 579 736 593 c 1,102,103
352 536 m 1,120,121
 316 499 316 499 299 461.5 c 128,-1,122
 282 424 282 424 282 386 c 0,123,124
 282 344 282 344 303 305 c 128,-1,125
 324 266 324 266 365 231 c 1,126,127
 351 217 351 217 337 201.5 c 128,-1,128
 323 186 323 186 309 172 c 1,129,130
 251 219 251 219 223.5 273.5 c 128,-1,131
 196 328 196 328 196 385 c 0,132,133
 196 440 196 440 220.5 493.5 c 128,-1,134
 245 547 245 547 291 595 c 1,135,136
 307 580 307 580 322 565.5 c 128,-1,137
 337 551 337 551 352 536 c 1,120,121
EndSplineSet
Validated: 1
EndChar

StartChar: wifi_0
Encoding: 28 48 28
Width: 1152
VWidth: 1205
Flags: W
LayerCount: 2
Fore
SplineSet
1057 423 m 1,0,1
 1018 458 1018 458 981 486 c 0,2,3
 943 515 943 515 901 539 c 0,4,5
 848 569 848 569 815 581 c 0,6,7
 772 597 772 597 723 610 c 0,8,9
 624 637 624 637 524 637 c 0,10,11
 427 637 427 637 329 611 c 0,12,13
 141 562 141 562 -5 423 c 1,14,-1
 96 322 l 1,15,16
 181 404 181 404 287 446 c 0,17,18
 403 493 403 493 526 494 c 0,19,20
 566 494 566 494 607 488 c 0,21,22
 638 484 638 484 687 472 c 0,23,24
 725 462 725 462 765 445 c 0,25,26
 874 399 874 399 956 322 c 1,27,-1
 1057 423 l 1,0,1
1100 423 m 1,28,-1
 956 279 l 1,29,-1
 945 289 l 2,30,31
 920 315 920 315 902 329 c 0,32,33
 889 339 889 339 855 362 c 0,34,35
 839 373 839 373 806 392 c 0,36,37
 778 407 778 407 753 418 c 0,38,39
 693 442 693 442 642 452 c 0,40,41
 585 463 585 463 526 463 c 0,42,43
 407 463 407 463 299 418 c 0,44,45
 241 393 241 393 197 364 c 0,46,47
 149 331 149 331 108 289 c 2,48,-1
 96 279 l 1,49,-1
 -48 423 l 1,50,-1
 -38 434 l 2,51,52
 115 585 115 585 321 640 c 0,53,54
 424 668 424 668 527 668 c 0,55,56
 628 668 628 668 730 641 c 0,57,58
 828 615 828 615 923 561 c 0,59,60
 1013 509 1013 509 1090 434 c 2,61,-1
 1100 423 l 1,28,-1
880 247 m 1,62,63
 811 310 811 310 725 347 c 0,64,65
 633 387 633 387 526 387 c 0,66,67
 421 387 421 387 328 347 c 0,68,69
 309 339 309 339 272 319 c 0,70,71
 249 307 249 307 221 287 c 0,72,73
 195 269 195 269 172 247 c 1,74,-1
 270 147 l 1,75,76
 316 189 316 189 379 216 c 0,77,78
 449 246 449 246 526 246 c 0,79,80
 673 246 673 246 781 147 c 1,81,82
 813 180 813 180 880 247 c 1,62,63
912 236 m 17,83,84
 824 148 824 148 793 116 c 2,85,-1
 781 104 l 1,86,-1
 770 115 l 2,87,88
 670 215 670 215 526 215 c 0,89,90
 503 215 503 215 480 212 c 0,91,92
 454 209 454 209 434 203 c 0,93,94
 407 195 407 195 391 188 c 0,95,96
 356 174 356 174 330.5 156.5 c 128,-1,97
 305 139 305 139 282 116 c 2,98,-1
 270 104 l 1,99,-1
 129 247 l 1,100,-1
 139 258 l 2,101,102
 217 334 217 334 316.5 376 c 128,-1,103
 416 418 416 418 526 418 c 0,104,105
 641 418 641 418 737 376 c 0,106,107
 781 357 781 357 830 325 c 0,108,109
 874 296 874 296 912 258 c 2,110,-1
 923 247 l 1,111,-1
 912 236 l 17,83,84
525 142 m 0,112,113
 421 142 421 142 344 74 c 1,114,-1
 525 -109 l 1,115,116
 667 34 667 34 707 74 c 1,117,118
 681 97 681 97 652.5 112 c 128,-1,119
 624 127 624 127 592 135 c 0,120,121
 560 142 560 142 525 142 c 0,112,113
525 173 m 0,122,123
 556 173 556 173 573 170 c 0,124,125
 599 166 599 166 620 159 c 0,126,127
 644 151 644 151 662 141 c 0,128,129
 677 133 677 133 702 116 c 0,130,131
 721 103 721 103 739 85 c 2,132,-1
 752 74 l 1,133,-1
 739 62 l 2,134,135
 719 43 719 43 537 -141 c 2,136,-1
 525 -152 l 1,137,-1
 301 74 l 1,138,-1
 311 85 l 2,139,140
 400 173 400 173 525 173 c 0,122,123
EndSplineSet
Validated: 1
EndChar

StartChar: wifi_1
Encoding: 29 49 29
Width: 1152
VWidth: 1205
Flags: W
LayerCount: 2
Fore
SplineSet
1057 423 m 1,0,1
 1018 458 1018 458 981 486 c 0,2,3
 943 515 943 515 901 539 c 0,4,5
 848 569 848 569 815 581 c 0,6,7
 772 597 772 597 723 610 c 0,8,9
 624 637 624 637 524 637 c 0,10,11
 427 637 427 637 329 611 c 0,12,13
 141 562 141 562 -5 423 c 1,14,-1
 96 322 l 1,15,16
 181 404 181 404 287 446 c 0,17,18
 403 493 403 493 526 494 c 0,19,20
 566 494 566 494 607 488 c 0,21,22
 641 484 641 484 687 472 c 0,23,24
 725 462 725 462 765 445 c 0,25,26
 874 399 874 399 956 322 c 1,27,-1
 1057 423 l 1,0,1
1100 423 m 1,28,-1
 956 279 l 1,29,-1
 945 289 l 2,30,31
 920 315 920 315 902 329 c 0,32,33
 889 339 889 339 855 362 c 0,34,35
 839 373 839 373 806 392 c 0,36,37
 777 407 777 407 753 418 c 0,38,39
 693 442 693 442 642 452 c 0,40,41
 585 463 585 463 526 463 c 0,42,43
 407 463 407 463 299 418 c 0,44,45
 240 393 240 393 197 364 c 0,46,47
 149 331 149 331 108 289 c 2,48,-1
 96 279 l 1,49,-1
 -48 423 l 1,50,-1
 -38 434 l 2,51,52
 115 585 115 585 321 640 c 0,53,54
 424 668 424 668 527 668 c 0,55,56
 628 668 628 668 730 641 c 0,57,58
 829 615 829 615 923 561 c 0,59,60
 1013 509 1013 509 1090 434 c 2,61,-1
 1100 423 l 1,28,-1
880 247 m 1,62,63
 812 309 812 309 725 347 c 0,64,65
 633 387 633 387 526 387 c 0,66,67
 421 387 421 387 328 347 c 0,68,69
 309 339 309 339 272 319 c 0,70,71
 249 307 249 307 221 287 c 0,72,73
 195 269 195 269 172 247 c 1,74,-1
 270 147 l 1,75,76
 316 189 316 189 379 216 c 0,77,78
 449 246 449 246 526 246 c 0,79,80
 673 246 673 246 781 147 c 1,81,82
 813 180 813 180 880 247 c 1,62,63
912 236 m 2,83,84
 824 148 824 148 793 116 c 2,85,-1
 781 104 l 1,86,-1
 770 115 l 2,87,88
 670 215 670 215 526 215 c 0,89,90
 503 215 503 215 480 212 c 0,91,92
 454 209 454 209 434 203 c 0,93,94
 407 195 407 195 391 188 c 0,95,96
 356 174 356 174 330.5 156.5 c 128,-1,97
 305 139 305 139 282 116 c 2,98,-1
 270 104 l 1,99,-1
 129 247 l 1,100,-1
 139 258 l 2,101,102
 217 334 217 334 316.5 376 c 128,-1,103
 416 418 416 418 526 418 c 0,104,105
 641 418 641 418 737 376 c 0,106,107
 781 357 781 357 830 325 c 0,108,109
 874 296 874 296 912 258 c 2,110,-1
 923 247 l 1,111,-1
 912 236 l 2,83,84
525 173 m 0,112,113
 556 173 556 173 573 170 c 0,114,115
 601 165 601 165 620 159 c 0,116,117
 644 151 644 151 662 141 c 0,118,119
 677 133 677 133 702 116 c 0,120,121
 721 103 721 103 739 85 c 2,122,-1
 752 74 l 1,123,-1
 739 62 l 2,124,125
 719 43 719 43 537 -141 c 2,126,-1
 525 -152 l 1,127,-1
 301 74 l 1,128,-1
 311 85 l 2,129,130
 400 173 400 173 525 173 c 0,112,113
EndSplineSet
Validated: 1
EndChar

StartChar: wifi_2
Encoding: 30 50 30
Width: 1152
VWidth: 1205
Flags: W
LayerCount: 2
Fore
SplineSet
1057 423 m 1,0,1
 1018 458 1018 458 981 486 c 0,2,3
 943 515 943 515 901 539 c 0,4,5
 850 568 850 568 815 581 c 0,6,7
 771 597 771 597 723 610 c 0,8,9
 624 637 624 637 524 637 c 0,10,11
 427 637 427 637 329 611 c 0,12,13
 141 562 141 562 -5 423 c 1,14,-1
 96 322 l 1,15,16
 181 404 181 404 287 446 c 0,17,18
 403 493 403 493 526 494 c 0,19,20
 566 494 566 494 607 488 c 0,21,22
 638 484 638 484 687 472 c 0,23,24
 725 462 725 462 765 445 c 0,25,26
 874 399 874 399 956 322 c 1,27,-1
 1057 423 l 1,0,1
1100 423 m 1,28,-1
 956 279 l 1,29,-1
 945 289 l 2,30,31
 920 315 920 315 902 329 c 0,32,33
 889 339 889 339 855 362 c 0,34,35
 839 373 839 373 806 392 c 0,36,37
 778 407 778 407 753 418 c 0,38,39
 693 442 693 442 642 452 c 0,40,41
 585 463 585 463 526 463 c 0,42,43
 407 463 407 463 299 418 c 0,44,45
 241 393 241 393 197 364 c 0,46,47
 149 331 149 331 108 289 c 2,48,-1
 96 279 l 1,49,-1
 -48 423 l 1,50,-1
 -38 434 l 2,51,52
 115 585 115 585 321 640 c 0,53,54
 424 668 424 668 527 668 c 0,55,56
 628 668 628 668 730 641 c 0,57,58
 829 615 829 615 923 561 c 0,59,60
 1013 509 1013 509 1090 434 c 2,61,-1
 1100 423 l 1,28,-1
912 236 m 2,62,63
 824 148 824 148 793 116 c 2,64,-1
 781 104 l 1,65,-1
 770 115 l 2,66,67
 670 215 670 215 526 215 c 0,68,69
 503 215 503 215 480 212 c 0,70,71
 454 209 454 209 434 203 c 0,72,73
 407 195 407 195 391 188 c 0,74,75
 356 174 356 174 330.5 156.5 c 128,-1,76
 305 139 305 139 282 116 c 2,77,-1
 270 104 l 1,78,-1
 129 247 l 1,79,-1
 139 258 l 2,80,81
 217 334 217 334 316.5 376 c 128,-1,82
 416 418 416 418 526 418 c 0,83,84
 641 418 641 418 737 376 c 0,85,86
 781 357 781 357 830 325 c 0,87,88
 874 296 874 296 912 258 c 2,89,-1
 923 247 l 1,90,-1
 912 236 l 2,62,63
525 173 m 0,91,92
 556 173 556 173 573 170 c 0,93,94
 599 166 599 166 620 159 c 0,95,96
 644 151 644 151 662 141 c 0,97,98
 677 133 677 133 702 116 c 0,99,100
 721 103 721 103 739 85 c 2,101,-1
 752 74 l 1,102,-1
 739 62 l 2,103,104
 719 43 719 43 537 -141 c 2,105,-1
 525 -152 l 1,106,-1
 301 74 l 1,107,-1
 311 85 l 2,108,109
 400 173 400 173 525 173 c 0,91,92
EndSplineSet
Validated: 1
EndChar

StartChar: wifi_3
Encoding: 31 51 31
Width: 1152
VWidth: 1205
Flags: W
LayerCount: 2
Fore
SplineSet
1100 423 m 1,0,-1
 956 279 l 1,1,-1
 945 289 l 2,2,3
 920 315 920 315 902 329 c 0,4,5
 889 339 889 339 855 362 c 0,6,7
 839 373 839 373 806 392 c 0,8,9
 778 407 778 407 753 418 c 0,10,11
 693 442 693 442 642 452 c 0,12,13
 585 463 585 463 526 463 c 0,14,15
 407 463 407 463 299 418 c 0,16,17
 241 393 241 393 197 364 c 0,18,19
 149 331 149 331 108 289 c 2,20,-1
 96 279 l 1,21,-1
 -48 423 l 1,22,-1
 -38 434 l 2,23,24
 115 585 115 585 321 640 c 0,25,26
 424 668 424 668 527 668 c 0,27,28
 628 668 628 668 730 641 c 0,29,30
 828 615 828 615 923 561 c 0,31,32
 1013 509 1013 509 1090 434 c 2,33,-1
 1100 423 l 1,0,-1
912 236 m 2,34,35
 824 148 824 148 793 116 c 2,36,-1
 781 104 l 1,37,-1
 770 115 l 2,38,39
 670 215 670 215 526 215 c 0,40,41
 503 215 503 215 480 212 c 0,42,43
 454 209 454 209 434 203 c 0,44,45
 407 195 407 195 391 188 c 0,46,47
 356 174 356 174 330.5 156.5 c 128,-1,48
 305 139 305 139 282 116 c 2,49,-1
 270 104 l 1,50,-1
 129 247 l 1,51,-1
 139 258 l 2,52,53
 217 334 217 334 316.5 376 c 128,-1,54
 416 418 416 418 526 418 c 0,55,56
 641 418 641 418 737 376 c 0,57,58
 781 357 781 357 830 325 c 0,59,60
 874 296 874 296 912 258 c 9,61,-1
 923 247 l 1,62,-1
 912 236 l 2,34,35
525 173 m 0,63,64
 556 173 556 173 573 170 c 0,65,66
 599 166 599 166 620 159 c 0,67,68
 644 151 644 151 662 141 c 0,69,70
 677 133 677 133 702 116 c 0,71,72
 721 103 721 103 739 85 c 2,73,-1
 752 74 l 1,74,-1
 739 62 l 2,75,76
 719 43 719 43 537 -141 c 2,77,-1
 525 -152 l 1,78,-1
 301 74 l 1,79,-1
 311 85 l 2,80,81
 400 173 400 173 525 173 c 0,63,64
EndSplineSet
Validated: 1
EndChar

StartChar: wifi_2_empty
Encoding: 32 52 32
Width: 1075
VWidth: 904
Flags: W
LayerCount: 2
Fore
SplineSet
291 268 m 1,0,1
 381 358 381 358 507 358 c 128,-1,2
 633 358 633 358 721 268 c 1,3,-1
 733 258 l 1,4,-1
 647 172 l 1,5,-1
 633 182 l 1,6,7
 582 236 582 236 507 236 c 0,8,9
 431 236 431 236 377 182 c 2,10,-1
 368 172 l 1,11,-1
 280 258 l 1,12,-1
 291 268 l 1,0,1
685 258 m 1,13,14
 610 327 610 327 509 327 c 0,15,16
 508 327 508 327 508 326 c 0,17,18
 406 326 406 326 326 258 c 1,19,-1
 368 216 l 1,20,21
 427 268 427 268 506 268 c 128,-1,22
 585 268 585 268 647 216 c 1,23,-1
 685 258 l 1,13,14
175 388 m 2,24,25
 311 524 311 524 506 524 c 128,-1,26
 701 524 701 524 840 388 c 1,27,-1
 849 376 l 1,28,-1
 765 292 l 1,29,-1
 754 304 l 1,30,31
 652 406 652 406 507 406 c 0,32,33
 360 406 360 406 257 304 c 1,34,-1
 247 292 l 1,35,-1
 163 376 l 1,36,-1
 175 388 l 2,24,25
805 376 m 1,37,38
 680 493 680 493 508 493 c 0,39,40
 507 492 l 0,41,42
 335 492 335 492 209 376 c 1,43,-1
 247 338 l 1,44,45
 358 438 358 438 506.5 438 c 128,-1,46
 655 438 655 438 765 338 c 1,47,-1
 805 376 l 1,37,38
966 492 m 1,48,-1
 882 408 l 1,49,-1
 869 418 l 1,50,51
 719 570 719 570 510 570 c 0,52,53
 508 570 508 570 507 570 c 0,54,55
 293 570 293 570 143 418 c 1,56,-1
 133 408 l 1,57,-1
 47 492 l 1,58,-1
 59 504 l 1,59,60
 246 688 246 688 507 688 c 0,61,62
 769 688 769 688 953 504 c 1,63,-1
 966 492 l 1,48,-1
920 490 m 1,64,65
 750 656 750 656 507.5 656 c 128,-1,66
 265 656 265 656 95 490 c 1,67,-1
 133 454 l 1,68,69
 290 602 290 602 506 602 c 0,70,71
 507 602 l 0,72,73
 724 602 724 602 882 454 c 1,74,-1
 920 490 l 1,64,65
509 190 m 0,75,76
 576 190 576 190 613 146 c 1,77,-1
 622 134 l 1,78,-1
 507 18 l 1,79,-1
 391 136 l 1,80,-1
 401 146 l 2,81,82
 443 190 443 190 509 190 c 0,75,76
578 136 m 1,83,84
 549 158 549 158 509 158 c 256,85,86
 469 158 469 158 437 134 c 1,87,-1
 507 64 l 1,88,-1
 578 136 l 1,83,84
EndSplineSet
Validated: 1
EndChar

StartChar: wifi_2_1
Encoding: 33 53 33
Width: 1100
VWidth: 904
Flags: W
LayerCount: 2
Fore
SplineSet
302 275 m 1,0,1
 394 367 394 367 522 367 c 128,-1,2
 650 367 650 367 742 275 c 2,3,-1
 753 265 l 1,4,-1
 665 177 l 1,5,-1
 652 187 l 1,6,7
 598 242 598 242 521 242 c 0,8,9
 445 242 445 242 390 187 c 2,10,-1
 380 177 l 1,11,-1
 291 265 l 1,12,-1
 302 275 l 1,0,1
706 265 m 1,13,14
 629 336 629 336 524 336 c 0,15,16
 523 336 523 336 522 335 c 0,17,18
 418 335 418 335 337 265 c 1,19,-1
 380 222 l 1,20,21
 441 275 441 275 522 275 c 128,-1,22
 603 275 603 275 665 222 c 1,23,-1
 706 265 l 1,13,14
183 398 m 1,24,25
 322 537 322 537 522.5 537 c 128,-1,26
 723 537 723 537 861 398 c 2,27,-1
 873 386 l 1,28,-1
 787 300 l 1,29,-1
 775 312 l 2,30,31
 672 416 672 416 521 417 c 0,32,33
 373 417 373 417 267 312 c 1,34,-1
 257 300 l 1,35,-1
 169 386 l 1,36,-1
 183 398 l 1,24,25
826 386 m 1,37,38
 698 506 698 506 522 506 c 0,39,40
 521 505 l 0,41,42
 345 505 345 505 218 386 c 1,43,-1
 257 347 l 1,44,45
 371 449 371 449 523 449 c 128,-1,46
 675 449 675 449 787 347 c 1,47,-1
 826 386 l 1,37,38
992 503 m 1,48,-1
 906 417 l 1,49,-1
 892 431 l 2,50,51
 738 585 738 585 524 585 c 0,52,53
 522 585 522 585 521 585 c 256,54,55
 304 585 304 585 151 431 c 1,56,-1
 138 417 l 1,57,-1
 52 503 l 1,58,-1
 62 517 l 1,59,60
 256 705 256 705 521 705 c 0,61,62
 789 705 789 705 980 517 c 1,63,-1
 992 503 l 1,48,-1
946 503 m 1,64,65
 768 673 768 673 523 673 c 128,-1,66
 278 673 278 673 99 503 c 1,67,-1
 138 466 l 1,68,69
 302 617 302 617 519 617 c 0,70,71
 521 617 521 617 522 617 c 0,72,-1
 523 617 l 0,73,74
 743 617 743 617 906 466 c 1,75,-1
 946 503 l 1,64,65
637 138 m 1,76,-1
 521 23 l 1,77,-1
 407 138 l 1,78,-1
 418 150 l 1,79,80
 461 193 461 193 523 193 c 0,81,82
 594 193 594 193 628 148 c 2,83,-1
 637 138 l 1,76,-1
EndSplineSet
Validated: 1
EndChar

StartChar: wifi_2_2
Encoding: 34 54 34
Width: 1100
VWidth: 904
Flags: W
LayerCount: 2
Fore
SplineSet
525 365 m 0,0,1
 652 365 652 365 742 275 c 1,2,-1
 755 265 l 1,3,-1
 669 179 l 1,4,-1
 658 191 l 1,5,6
 603 246 603 246 525 247 c 0,7,8
 445 247 445 247 390 191 c 1,9,-1
 382 179 l 1,10,-1
 296 265 l 1,11,-1
 306 275 l 2,12,13
 396 365 396 365 525 365 c 0,0,1
525 542 m 0,14,15
 725 542 725 542 867 398 c 2,16,-1
 878 388 l 1,17,-1
 792 302 l 1,18,-1
 779 312 l 1,19,20
 674 418 674 418 526 418 c 0,21,22
 525 419 525 419 524 419 c 0,23,24
 376 419 376 419 269 312 c 2,25,-1
 259 302 l 1,26,-1
 171 388 l 1,27,-1
 183 398 l 1,28,29
 324 542 324 542 525 542 c 0,14,15
833 388 m 1,30,31
 703 507 703 507 528 507 c 0,32,33
 526 507 526 507 525 507 c 256,34,35
 349 507 349 507 220 388 c 1,36,-1
 259 347 l 1,37,38
 371 451 371 451 525 451 c 0,39,40
 682 451 682 451 792 347 c 1,41,-1
 833 388 l 1,30,31
996 505 m 1,42,-1
 908 419 l 1,43,-1
 899 431 l 1,44,45
 743 585 743 585 528 585 c 0,46,47
 526 585 526 585 525 585 c 0,48,49
 306 585 306 585 151 431 c 1,50,-1
 140 419 l 1,51,-1
 54 505 l 1,52,-1
 65 517 l 1,53,54
 254 707 254 707 525 707 c 256,55,56
 795 707 795 707 985 517 c 2,57,-1
 996 505 l 1,42,-1
949 505 m 1,58,59
 772 673 772 673 525 673 c 0,60,61
 279 673 279 673 99 505 c 1,62,-1
 140 468 l 1,63,64
 300 616 300 616 525 617 c 0,65,66
 748 617 748 617 908 468 c 1,67,-1
 949 505 l 1,58,59
639 138 m 1,68,-1
 525 21 l 1,69,-1
 409 138 l 1,70,-1
 420 148 l 2,71,72
 461 191 461 191 527.5 191 c 128,-1,73
 594 191 594 191 630 148 c 2,74,-1
 639 138 l 1,68,-1
EndSplineSet
Validated: 1
EndChar

StartChar: wifi_2_3
Encoding: 35 55 35
Width: 1100
VWidth: 904
Flags: W
LayerCount: 2
Fore
SplineSet
302 273 m 1,0,1
 396 363 396 363 521 363 c 128,-1,2
 646 363 646 363 740 273 c 1,3,-1
 749 263 l 1,4,-1
 665 179 l 1,5,-1
 654 189 l 2,6,7
 598 244 598 244 521 245 c 0,8,9
 441 245 441 245 386 189 c 1,10,-1
 379 179 l 1,11,-1
 294 263 l 1,12,-1
 302 273 l 1,0,1
183 396 m 2,13,14
 322 535 322 535 521 535 c 128,-1,15
 720 535 720 535 860 396 c 1,16,-1
 867 386 l 1,17,-1
 785 304 l 1,18,-1
 775 314 l 2,19,20
 672 418 672 418 521 419 c 0,21,22
 373 419 373 419 263 314 c 1,23,-1
 255 304 l 1,24,-1
 173 386 l 1,25,-1
 183 396 l 2,13,14
991 503 m 1,26,-1
 904 417 l 1,27,-1
 892 431 l 1,28,29
 741 582 741 582 524 582 c 0,30,31
 522 582 522 582 521 582 c 0,32,33
 300 582 300 582 148 431 c 1,34,-1
 138 417 l 1,35,-1
 52 503 l 1,36,-1
 62 515 l 1,37,38
 251 705 251 705 521 705 c 128,-1,39
 791 705 791 705 978 515 c 1,40,-1
 991 503 l 1,26,-1
944 503 m 1,41,42
 768 671 768 671 521.5 671 c 128,-1,43
 275 671 275 671 99 503 c 1,44,-1
 138 466 l 1,45,46
 298 615 298 615 517 615 c 0,47,48
 519 615 519 615 520 615 c 0,49,-1
 521 615 l 0,50,51
 743 615 743 615 904 466 c 1,52,-1
 944 503 l 1,41,42
635 138 m 1,53,-1
 521 23 l 1,54,-1
 404 138 l 1,55,-1
 416 150 l 1,56,57
 459 193 459 193 523 193 c 0,58,59
 592 193 592 193 626 148 c 2,60,-1
 635 138 l 1,53,-1
EndSplineSet
Validated: 1
EndChar

StartChar: wifi_2_4
Encoding: 36 56 36
Width: 1100
VWidth: 904
Flags: W
LayerCount: 2
Fore
SplineSet
671 197 m 2,0,1
 641 226 641 226 605.5 240.5 c 128,-1,2
 570 255 570 255 532.5 255 c 128,-1,3
 495 255 495 255 458.5 240.5 c 128,-1,4
 422 226 422 226 390 197 c 1,5,-1
 386 191 l 1,6,-1
 306 269 l 1,7,-1
 312 275 l 2,8,9
 402 365 402 365 531 365 c 256,10,11
 660 365 660 365 751 275 c 1,12,-1
 755 269 l 1,13,-1
 678 191 l 1,14,-1
 671 197 l 2,0,1
796 324 m 2,15,16
 687 429 687 429 531 431 c 0,17,18
 371 431 371 431 267 324 c 2,19,-1
 261 318 l 1,20,-1
 185 392 l 1,21,-1
 191 398 l 2,22,23
 332 539 332 539 531 539 c 0,24,25
 732 539 732 539 871 398 c 2,26,-1
 878 392 l 1,27,-1
 802 318 l 1,28,-1
 796 324 l 2,15,16
916 443 m 1,29,30
 755 600 755 600 535 600 c 0,31,32
 533 600 533 600 531 600 c 0,33,34
 306 600 306 600 148 443 c 1,35,-1
 140 437 l 1,36,-1
 68 513 l 1,37,-1
 72 517 l 1,38,39
 261 707 261 707 531 707 c 256,40,41
 801 707 801 707 991 517 c 1,42,-1
 996 513 l 1,43,-1
 921 437 l 1,44,-1
 916 443 l 1,29,30
641 140 m 1,45,-1
 534 30 l 1,46,-1
 424 140 l 1,47,-1
 429 146 l 2,48,49
 467 189 467 189 534 189 c 0,50,51
 599 189 599 189 635 146 c 1,52,-1
 641 140 l 1,45,-1
EndSplineSet
Validated: 1
EndChar

StartChar: wifi_warning_circle
Encoding: 37 57 37
Width: 1152
VWidth: 904
Flags: W
LayerCount: 2
Fore
SplineSet
525 195 m 0,0,1
 598 195 598 195 632 150 c 2,2,-1
 642 138 l 1,3,-1
 525 17 l 1,4,-1
 404 138 l 1,5,-1
 418 150 l 2,6,7
 457 195 457 195 525 195 c 0,0,1
598 138 m 1,8,9
 567 163 567 163 528 163 c 0,10,11
 527 163 527 163 525 163 c 0,12,13
 486 163 486 163 452 138 c 1,14,-1
 525 64 l 1,15,-1
 598 138 l 1,8,9
833 791 m 0,16,17
 945 791 945 791 1023 712.5 c 128,-1,18
 1101 634 1101 634 1101 523 c 0,19,20
 1101 410 1101 410 1022.5 332.5 c 128,-1,21
 944 255 944 255 833 255 c 0,22,23
 794 255 794 255 757 265 c 1,24,-1
 669 175 l 1,25,-1
 656 187 l 2,26,27
 601 242 601 242 525 242 c 0,28,29
 447 242 447 242 392 187 c 2,30,-1
 380 175 l 1,31,-1
 293 265 l 1,32,-1
 304 275 l 1,33,34
 392 367 392 367 525 367 c 0,35,36
 572 367 572 367 626 351 c 1,37,38
 598 386 598 386 587 412 c 1,39,40
 546 416 546 416 523 417 c 0,41,42
 375 417 375 417 269 312 c 2,43,-1
 257 300 l 1,44,-1
 171 386 l 1,45,-1
 183 398 l 2,46,47
 320 539 320 539 523 539 c 0,48,49
 551 539 551 539 564 537 c 1,50,51
 564 560 564 560 570 582 c 1,52,53
 562 582 562 582 546.5 583.5 c 128,-1,54
 531 585 531 585 523 585 c 0,55,56
 308 585 308 585 151 431 c 1,57,-1
 140 419 l 1,58,-1
 52 505 l 1,59,-1
 65 517 l 1,60,61
 254 707 254 707 523 707 c 0,62,63
 570 707 570 707 628 697 c 1,64,65
 708 791 708 791 833 791 c 0,16,17
523 617 m 0,66,67
 560 617 560 617 579 615 c 1,68,69
 595 652 595 652 605 668 c 1,70,71
 553 672 553 672 523 673 c 0,72,73
 277 673 277 673 99 505 c 1,74,-1
 140 466 l 1,75,76
 298 617 298 617 523 617 c 0,66,67
523 451 m 0,77,78
 541 451 541 451 574 447 c 1,79,80
 568 465 568 465 564 505 c 1,81,82
 556 505 556 505 543.5 506 c 128,-1,83
 531 507 531 507 523 507 c 0,84,85
 349 507 349 507 218 386 c 1,86,-1
 257 347 l 1,87,88
 372 451 372 451 523 451 c 0,77,78
710 265 m 1,89,90
 631 335 631 335 526 335 c 0,91,92
 525 335 525 335 523 335 c 0,93,94
 420 335 420 335 339 265 c 1,95,-1
 380 222 l 1,96,97
 443 275 443 275 523 275 c 0,98,99
 607 275 607 275 667 222 c 1,100,-1
 710 265 l 1,89,90
873 398 m 1,101,-1
 792 398 l 1,102,-1
 792 316 l 1,103,-1
 873 316 l 1,104,-1
 873 398 l 1,101,-1
890 730 m 1,105,-1
 773 730 l 1,106,-1
 794 433 l 1,107,-1
 871 433 l 1,108,-1
 890 730 l 1,105,-1
EndSplineSet
Validated: 1
EndChar

StartChar: wifi_warning_triangle
Encoding: 38 58 38
Width: 1155
VWidth: 904
Flags: W
LayerCount: 2
Fore
SplineSet
394 109 m 1,0,1
 429 148 429 148 488 148 c 128,-1,2
 547 148 547 148 579 109 c 1,3,-1
 486 15 l 1,4,-1
 394 109 l 1,0,1
1089 343 m 2,5,6
 1099 326 1099 326 1099 306 c 0,7,8
 1099 289 1099 289 1089 271 c 0,9,10
 1068 234 1068 234 1028 234 c 2,11,-1
 687 234 l 1,12,-1
 689 232 l 1,13,-1
 626 169 l 1,14,15
 569 226 569 226 486.5 226 c 128,-1,16
 404 226 404 226 347 169 c 1,17,-1
 285 232 l 1,18,19
 361 308 361 308 470 314 c 1,20,-1
 510 394 l 1,21,22
 496 395 496 395 482 395 c 0,23,24
 329 393 329 393 228 290 c 1,25,-1
 167 351 l 1,26,27
 299 483 299 483 474 483 c 0,28,29
 515 483 515 483 558 476 c 1,30,-1
 599 546 l 1,31,32
 546 555 546 555 495 555 c 0,33,34
 288 555 288 555 115 404 c 1,35,-1
 52 466 l 1,36,37
 290 635 290 635 522 635 c 0,38,39
 584 635 584 635 644 623 c 1,40,-1
 723 754 l 2,41,42
 745 791 745 791 783 791 c 0,43,44
 825 791 825 791 847 754 c 2,45,-1
 1089 343 l 2,5,6
1068 280 m 0,46,47
 1071 283 1071 283 1073 306 c 0,48,49
 1074 315 1074 315 1066 329 c 2,50,-1
 822 742 l 2,51,52
 810 762 810 762 784 763 c 0,53,54
 756 763 756 763 744 742 c 2,55,-1
 504 329 l 2,56,57
 498 319 498 319 498 305 c 0,58,59
 498 295 498 295 504 283 c 0,60,61
 515 261 515 261 540 261 c 0,62,63
 541 261 541 261 542 261 c 2,64,-1
 1028 261 l 2,65,-1
 1034 261 l 2,66,67
 1035 261 1035 261 1036 261 c 128,-1,68
 1037 261 1037 261 1038 261 c 0,69,-1
 1039 261 l 0,70,71
 1040 261 1040 261 1041 261 c 128,-1,72
 1042 261 1042 261 1042 261 c 0,73,74
 1043 261 1043 261 1043 261 c 0,75,76
 1049 261 1049 261 1068 280 c 0,46,47
856 660 m 1,77,-1
 854 632 l 1,78,-1
 841 415 l 1,79,-1
 841 300 l 1,80,-1
 727 300 l 1,81,-1
 727 415 l 1,82,-1
 729 415 l 1,83,-1
 714 632 l 1,84,-1
 712 660 l 1,85,-1
 740 660 l 1,86,-1
 856 660 l 1,77,-1
815 388 m 1,87,-1
 753 388 l 1,88,-1
 753 326 l 1,89,-1
 815 326 l 1,90,-1
 815 388 l 1,87,-1
826 634 m 1,91,-1
 740 634 l 1,92,-1
 755 412 l 1,93,-1
 815 412 l 1,94,-1
 826 634 l 1,91,-1
EndSplineSet
Validated: 1
EndChar

StartChar: wifi_dot
Encoding: 39 59 39
Width: 1096
VWidth: 904
Flags: W
LayerCount: 2
Fore
SplineSet
798 340 m 1,0,1
 745 393 745 393 677.5 420.5 c 128,-1,2
 610 448 610 448 535 448 c 256,3,4
 459 448 459 448 392 420.5 c 128,-1,5
 325 393 325 393 271 340 c 1,6,-1
 195 416 l 1,7,8
 230 451 230 451 269.5 477 c 128,-1,9
 309 503 309 503 353 521 c 0,10,11
 438 556 438 556 529 556 c 0,12,13
 532 556 532 556 535 556 c 0,14,15
 631 556 631 556 715 521 c 0,16,17
 806 484 806 484 874 416 c 1,18,-1
 798 340 l 1,0,1
916 459 m 1,19,20
 838 537 838 537 738 577 c 0,21,22
 689 595 689 595 638.5 606 c 128,-1,23
 588 617 588 617 535 617 c 0,24,25
 483 617 483 617 432 606.5 c 128,-1,26
 381 596 381 596 333 577 c 0,27,28
 233 536 233 536 155 459 c 1,29,-1
 78 534 l 1,30,31
 172 628 172 628 293 676 c 0,32,33
 350 701 350 701 411 712.5 c 128,-1,34
 472 724 472 724 535 724 c 0,35,36
 663 724 663 724 779 676 c 0,37,38
 838 651 838 651 891.5 616 c 128,-1,39
 945 581 945 581 992 534 c 1,40,-1
 916 459 l 1,19,20
678 219 m 1,41,42
 648 249 648 249 611.5 263 c 128,-1,43
 575 277 575 277 537 277 c 128,-1,44
 499 277 499 277 463 262.5 c 128,-1,45
 427 248 427 248 397 219 c 1,46,-1
 321 297 l 1,47,48
 365 340 365 340 420.5 362.5 c 128,-1,49
 476 385 476 385 537 385 c 0,50,51
 599 385 599 385 654.5 362.5 c 128,-1,52
 710 340 710 340 754 297 c 1,53,-1
 678 219 l 1,41,42
609 188 m 256,54,55
 622 175 622 175 629.5 157.5 c 128,-1,56
 637 140 637 140 637 122 c 128,-1,57
 637 104 637 104 630 86 c 128,-1,58
 623 68 623 68 609 55 c 256,59,60
 596 42 596 42 578.5 34.5 c 128,-1,61
 561 27 561 27 543 27 c 128,-1,62
 525 27 525 27 507.5 34.5 c 128,-1,63
 490 42 490 42 477 55 c 256,64,65
 464 68 464 68 457 86 c 128,-1,66
 450 104 450 104 450 122 c 128,-1,67
 450 140 450 140 457 157.5 c 128,-1,68
 464 175 464 175 477 188 c 256,69,70
 490 201 490 201 507.5 208 c 128,-1,71
 525 215 525 215 543 215 c 128,-1,72
 561 215 561 215 578.5 208 c 128,-1,73
 596 201 596 201 609 188 c 256,54,55
EndSplineSet
Validated: 1
EndChar

StartChar: smart_phone
Encoding: 40 64 40
Width: 1048
VWidth: 844
Flags: W
LayerCount: 2
Fore
SplineSet
774 867 m 2,0,1
 798 867 798 867 814.5 849.5 c 128,-1,2
 831 832 831 832 831 807 c 2,3,-1
 831 -121 l 2,4,5
 831 -147 831 -147 814 -162.5 c 128,-1,6
 797 -178 797 -178 772 -178 c 2,7,-1
 272 -178 l 2,8,9
 246 -178 246 -178 230.5 -161.5 c 128,-1,10
 215 -145 215 -145 215 -121 c 2,11,-1
 215 807 l 2,12,13
 215 833 215 833 231.5 850 c 128,-1,14
 248 867 248 867 272 867 c 2,15,-1
 774 867 l 2,0,1
545 -123 m 0,16,17
 556 -112 556 -112 556.5 -95 c 128,-1,18
 557 -78 557 -78 544.5 -65.5 c 128,-1,19
 532 -53 532 -53 516 -53 c 128,-1,20
 500 -53 500 -53 487.5 -65.5 c 128,-1,21
 475 -78 475 -78 475 -94 c 128,-1,22
 475 -110 475 -110 487.5 -122.5 c 128,-1,23
 500 -135 500 -135 516.5 -135 c 128,-1,24
 533 -135 533 -135 545 -123 c 0,16,17
752 793 m 1,25,-1
 283 793 l 1,26,-1
 283 -2 l 1,27,-1
 752 -2 l 1,28,-1
 752 793 l 1,25,-1
EndSplineSet
Validated: 1
EndChar

StartChar: Tablet
Encoding: 41 65 41
Width: 1048
VWidth: 844
Flags: W
LayerCount: 2
Fore
SplineSet
862 195 m 2,0,1
 916 183 916 183 916 135 c 0,2,3
 915 113 915 113 905 86 c 0,4,5
 901 75 901 75 836 -96 c 1,6,-1
 600 -96 l 1,7,-1
 449 139 l 2,8,9
 429 174 429 174 428 198 c 0,10,11
 428 206 428 206 430 213 c 0,12,13
 440 240 440 240 469 240 c 0,14,15
 497 240 497 240 516 213 c 0,16,17
 561 156 561 156 567 142 c 1,18,-1
 567 412 l 2,19,20
 567 440 567 440 582.5 455.5 c 128,-1,21
 598 471 598 471 618 471 c 0,22,23
 667 471 667 471 668 409 c 2,24,-1
 668 244 l 1,25,-1
 862 195 l 2,0,1
999 787 m 2,26,27
 1019 787 1019 787 1033 773.5 c 128,-1,28
 1047 760 1047 760 1047 740 c 2,29,-1
 1047 133 l 2,30,31
 1047 113 1047 113 1032.5 99.5 c 128,-1,32
 1018 86 1018 86 999 86 c 2,33,-1
 954 86 l 1,34,35
 963 114 963 114 964 137 c 0,36,37
 963 165 963 165 952 185 c 0,38,39
 942 204 942 204 911 226 c 1,40,-1
 911 727 l 1,41,-1
 55 727 l 1,42,-1
 55 146 l 1,43,-1
 393 146 l 1,44,45
 401 126 401 126 410 115 c 0,46,47
 412 109 412 109 417 100.5 c 128,-1,48
 422 92 422 92 426 86 c 1,49,-1
 47 86 l 2,50,51
 27 86 27 86 13.5 99.5 c 128,-1,52
 0 113 0 113 0 133 c 2,53,-1
 0 740 l 2,54,55
 0 759 0 759 14.5 773 c 128,-1,56
 29 787 29 787 47 787 c 2,57,-1
 999 787 l 2,26,27
977 404 m 0,58,59
 1010 404 1010 404 1010 436.5 c 128,-1,60
 1010 469 1010 469 977 469 c 0,61,62
 963 469 963 469 952.5 460 c 128,-1,63
 942 451 942 451 942 436.5 c 128,-1,64
 942 422 942 422 952.5 413 c 128,-1,65
 963 404 963 404 977 404 c 0,58,59
EndSplineSet
Validated: 1
EndChar

StartChar: laptop
Encoding: 42 66 42
Width: 1048
VWidth: 844
Flags: W
LayerCount: 2
Fore
SplineSet
1004 92 m 1,0,1
 1049 88 1049 88 1049 72 c 2,2,-1
 1049 41 l 2,3,4
 1049 12 1049 12 1030.5 -6 c 128,-1,5
 1012 -24 1012 -24 982 -24 c 2,6,-1
 65 -24 l 2,7,8
 36 -24 36 -24 18 -5.5 c 128,-1,9
 0 13 0 13 0 41 c 2,10,-1
 0 72 l 2,11,12
 0 90 0 90 49 94 c 1,13,-1
 49 670 l 2,14,15
 49 685 49 685 61.5 699 c 128,-1,16
 74 713 74 713 92 713 c 2,17,-1
 961 713 l 2,18,19
 977 713 977 713 990.5 699.5 c 128,-1,20
 1004 686 1004 686 1004 670 c 2,21,-1
 1004 92 l 1,0,1
571 15 m 2,22,23
 590 15 590 15 592 35 c 0,24,25
 592 59 592 59 571 58 c 2,26,-1
 469 58 l 2,27,28
 450 58 450 58 449 35 c 0,29,30
 449 16 449 16 469 15 c 2,31,-1
 571 15 l 2,22,23
950 660 m 1,32,-1
 98 660 l 1,33,-1
 98 94 l 1,34,-1
 950 94 l 1,35,-1
 950 660 l 1,32,-1
EndSplineSet
Validated: 1
EndChar

StartChar: desktop
Encoding: 43 67 43
Width: 1048
VWidth: 844
Flags: W
LayerCount: 2
Fore
SplineSet
1014 674 m 2,0,1
 1047 674 1047 674 1047 637 c 2,2,-1
 1047 203 l 2,3,4
 1047 190 1047 190 1037.5 179 c 128,-1,5
 1028 168 1028 168 1014 168 c 2,6,-1
 764 168 l 1,7,-1
 764 119 l 1,8,-1
 831 119 l 2,9,10
 854 119 854 119 864 90 c 2,11,-1
 883 29 l 2,12,13
 885 21 885 21 885 14 c 0,14,15
 885 5 885 5 882 -3 c 0,16,17
 877 -18 877 -18 862 -18 c 2,18,-1
 584 -18 l 2,19,20
 570 -18 570 -18 563 -4 c 0,21,22
 560 3 560 3 560 11.5 c 128,-1,23
 560 20 560 20 563 29 c 2,24,-1
 580 90 l 2,25,26
 586 119 586 119 610 119 c 2,27,-1
 684 119 l 1,28,-1
 684 168 l 1,29,-1
 434 168 l 2,30,31
 420 168 420 168 409.5 178.5 c 128,-1,32
 399 189 399 189 399 203 c 2,33,-1
 399 637 l 2,34,35
 399 651 399 651 409.5 662.5 c 128,-1,36
 420 674 420 674 434 674 c 2,37,-1
 1014 674 l 2,0,1
1008 629 m 1,38,-1
 438 629 l 1,39,-1
 438 213 l 1,40,-1
 1008 213 l 1,41,-1
 1008 629 l 1,38,-1
258 705 m 2,42,43
 278 705 278 705 292.5 688 c 128,-1,44
 307 671 307 671 307 649 c 2,45,-1
 307 39 l 2,46,47
 307 14 307 14 293 -2 c 128,-1,48
 279 -18 279 -18 258 -18 c 2,49,-1
 49 -18 l 2,50,51
 29 -18 29 -18 14.5 -1.5 c 128,-1,52
 0 15 0 15 0 39 c 2,53,-1
 0 649 l 2,54,55
 0 672 0 672 14.5 688.5 c 128,-1,56
 29 705 29 705 49 705 c 2,57,-1
 258 705 l 2,42,43
176 109 m 128,-1,59
 176 136 176 136 155 136 c 0,60,61
 154 136 154 136 153 136 c 128,-1,62
 152 136 152 136 152 135 c 0,63,64
 127 135 127 135 127 108.5 c 128,-1,65
 127 82 127 82 151.5 82 c 128,-1,58
 176 82 176 82 176 109 c 128,-1,59
254 527 m 2,66,67
 270 527 270 527 270 545 c 128,-1,68
 270 563 270 563 254 563 c 2,69,-1
 53 563 l 2,70,71
 37 563 37 563 37 545 c 128,-1,72
 37 527 37 527 53 527 c 2,73,-1
 254 527 l 2,66,67
254 596 m 2,74,75
 270 596 270 596 270 614.5 c 128,-1,76
 270 633 270 633 254 633 c 2,77,-1
 53 633 l 2,78,79
 37 633 37 633 37 614.5 c 128,-1,80
 37 596 37 596 53 596 c 2,81,-1
 254 596 l 2,74,75
EndSplineSet
Validated: 1
EndChar

StartChar: game
Encoding: 44 68 44
Width: 1048
VWidth: 904
Flags: W
LayerCount: 2
Fore
SplineSet
879 486 m 1,0,1
 953 470 953 470 1000 411.5 c 128,-1,2
 1047 353 1047 353 1047 277 c 0,3,4
 1047 189 1047 189 984.5 127.5 c 128,-1,5
 922 66 922 66 834 66 c 0,6,7
 734 66 734 66 670 146 c 1,8,-1
 377 146 l 1,9,10
 315 66 315 66 213 66 c 0,11,12
 125 66 125 66 62.5 127.5 c 128,-1,13
 0 189 0 189 0 277 c 0,14,15
 0 353 0 353 47 411 c 128,-1,16
 94 469 94 469 168 486 c 1,17,18
 199 500 199 500 242 501 c 2,19,-1
 489 501 l 1,20,21
 495 599 495 599 543 666 c 0,22,23
 595 742 595 742 686 742 c 1,24,-1
 686 693 l 1,25,26
 624 693 624 693 582 638 c 0,27,28
 543 581 543 581 539 501 c 1,29,-1
 805 501 l 2,30,31
 848 500 848 500 879 486 c 1,0,1
285 306 m 1,32,-1
 219 306 l 1,33,-1
 219 372 l 1,34,-1
 172 372 l 1,35,-1
 172 306 l 1,36,-1
 106 306 l 1,37,-1
 106 259 l 1,38,-1
 172 259 l 1,39,-1
 172 193 l 1,40,-1
 219 193 l 1,41,-1
 219 259 l 1,42,-1
 285 259 l 1,43,-1
 285 306 l 1,32,-1
602 335 m 1,44,-1
 444 335 l 1,45,-1
 444 294 l 1,46,-1
 602 294 l 1,47,-1
 602 335 l 1,44,-1
831 197 m 0,48,49
 831 183 831 183 841 172 c 128,-1,50
 851 161 851 161 868 161 c 128,-1,51
 885 161 885 161 895 172 c 128,-1,52
 905 183 905 183 905 197 c 0,53,54
 905 212 905 212 894 224 c 128,-1,55
 883 236 883 236 868.5 236 c 128,-1,56
 854 236 854 236 842.5 224 c 128,-1,57
 831 212 831 212 831 197 c 0,48,49
920 275 m 0,58,59
 934 275 934 275 945 286.5 c 128,-1,60
 956 298 956 298 956 312 c 0,61,62
 956 328 956 328 945 339.5 c 128,-1,63
 934 351 934 351 919.5 351 c 128,-1,64
 905 351 905 351 893 338.5 c 128,-1,65
 881 326 881 326 881 312 c 128,-1,66
 881 298 881 298 892.5 286.5 c 128,-1,67
 904 275 904 275 920 275 c 0,58,59
EndSplineSet
Validated: 1
EndChar

StartChar: printer
Encoding: 45 69 45
Width: 1048
VWidth: 844
Flags: W
LayerCount: 2
Fore
SplineSet
199 96 m 1,0,-1
 851 96 l 1,1,-1
 851 15 l 1,2,-1
 199 15 l 1,3,-1
 199 60 l 1,4,-1
 199 96 l 1,0,-1
851 387 m 1,5,-1
 199 387 l 1,6,-1
 199 676 l 1,7,-1
 851 676 l 1,8,-1
 851 387 l 1,5,-1
791 469 m 1,9,-1
 266 469 l 1,10,-1
 266 426 l 1,11,-1
 791 426 l 1,12,-1
 791 469 l 1,9,-1
791 545 m 1,13,-1
 266 545 l 1,14,-1
 266 502 l 1,15,-1
 791 502 l 1,16,-1
 791 545 l 1,13,-1
791 621 m 1,17,-1
 266 621 l 1,18,-1
 266 578 l 1,19,-1
 791 578 l 1,20,-1
 791 621 l 1,17,-1
905 428 m 2,21,22
 935 428 935 428 953 408.5 c 128,-1,23
 971 389 971 389 971 363 c 2,24,-1
 971 125 l 2,25,26
 971 98 971 98 951.5 79 c 128,-1,27
 932 60 932 60 905 60 c 2,28,-1
 893 60 l 1,29,-1
 893 139 l 1,30,-1
 156 139 l 1,31,-1
 156 60 l 1,32,-1
 143 60 l 2,33,34
 115 60 115 60 96.5 79.5 c 128,-1,35
 78 99 78 99 78 125 c 2,36,-1
 78 363 l 2,37,38
 78 390 78 390 96.5 409 c 128,-1,39
 115 428 115 428 143 428 c 2,40,-1
 156 428 l 1,41,-1
 156 344 l 1,42,-1
 893 344 l 1,43,-1
 893 428 l 1,44,-1
 905 428 l 2,21,22
764 182 m 0,45,46
 793 182 793 182 793 211 c 0,47,48
 793 242 793 242 764 242 c 0,49,50
 752 242 752 242 742.5 232.5 c 128,-1,51
 733 223 733 223 733 211 c 0,52,53
 733 210 733 210 733 209 c 128,-1,54
 733 208 733 208 733 207 c 0,55,56
 733 182 733 182 764 182 c 0,45,46
854 182 m 0,57,58
 885 182 885 182 885 209 c 0,59,60
 885 210 885 210 885 211 c 0,61,62
 885 242 885 242 854 242 c 0,63,64
 825 242 825 242 825 211 c 0,65,66
 825 182 825 182 854 182 c 0,57,58
EndSplineSet
Validated: 1
EndChar

StartChar: webcam
Encoding: 46 70 46
Width: 1124
VWidth: 844
Flags: W
HStem: -35 80<452.063 752.002> 82 193<521.121 681.158> 578 69<522.922 626.143> 701 67<490.276 627.365>
VStem: 259 68<401.753 538.035> 380 70<401.535 503.729> 502 198<364.763 426 426 487.385> 753 190<348.194 503.114>
LayerCount: 2
Fore
SplineSet
329 -43 m 0,0,1
 388 6 388 6 443.5 25.5 c 128,-1,2
 499 45 499 45 601.5 45 c 128,-1,3
 704 45 704 45 762 25 c 0,4,5
 822 3 822 3 876 -43 c 0,6,7
 892 -57 892 -57 892 -72 c 0,8,9
 892 -84 892 -84 880 -98 c 0,10,11
 866 -113 866 -113 848 -113 c 0,12,13
 836 -113 836 -113 822 -102 c 0,14,15
 781 -67 781 -67 737 -51 c 128,-1,16
 693 -35 693 -35 601 -35 c 0,17,18
 513 -35 513 -35 470 -50 c 128,-1,19
 427 -65 427 -65 380 -104 c 0,20,21
 370 -112 370 -112 353 -112 c 0,22,23
 335 -112 335 -112 323 -98 c 0,24,25
 314 -86 314 -86 316 -69.5 c 128,-1,26
 318 -53 318 -53 329 -43 c 0,0,1
532 496 m 0,27,28
 561 525 561 525 601.5 525 c 128,-1,29
 642 525 642 525 671 496 c 128,-1,30
 700 467 700 467 700 426 c 128,-1,31
 700 385 700 385 671 356.5 c 128,-1,32
 642 328 642 328 601 328 c 128,-1,33
 560 328 560 328 531.5 356.5 c 128,-1,34
 503 385 503 385 503 426 c 0,35,36
 502 426 502 426 502 427 c 0,37,38
 502 466 502 466 532 496 c 0,27,28
943 426 m 0,39,40
 943 283 943 283 843 182.5 c 128,-1,41
 743 82 743 82 601.5 82 c 128,-1,42
 460 82 460 82 359.5 182.5 c 128,-1,43
 259 283 259 283 259 426 c 0,44,45
 259 567 259 567 359.5 667.5 c 128,-1,46
 460 768 460 768 601.5 768 c 128,-1,47
 743 768 743 768 843 667.5 c 128,-1,48
 943 567 943 567 943 426 c 0,39,40
753 426 m 0,49,50
 753 487 753 487 709 532.5 c 128,-1,51
 665 578 665 578 601.5 578 c 128,-1,52
 538 578 538 578 494 533 c 128,-1,53
 450 488 450 488 450 426 c 128,-1,54
 450 364 450 364 494 319.5 c 128,-1,55
 538 275 538 275 601.5 275 c 128,-1,56
 665 275 665 275 709 319.5 c 128,-1,57
 753 364 753 364 753 426 c 0,49,50
327 426 m 0,58,59
 327 399 327 399 353 399 c 0,60,61
 353 399 353 399 354 400 c 0,62,63
 380 426 380 426 380 426 c 0,64,65
 380 518 380 518 444.5 582.5 c 128,-1,66
 509 647 509 647 601 647 c 0,67,68
 628 647 628 647 628 674 c 128,-1,69
 628 701 628 701 601 701 c 0,70,71
 486 701 486 701 406.5 621 c 128,-1,72
 327 541 327 541 327 426 c 0,58,59
EndSplineSet
Validated: 1
EndChar

StartChar: router
Encoding: 47 71 47
Width: 1048
VWidth: 844
Flags: W
LayerCount: 2
Fore
SplineSet
705 436 m 1,0,-1
 784 436 l 1,1,-1
 784 299 l 1,2,-1
 705 299 l 1,3,-1
 705 436 l 1,0,-1
874 256 m 2,4,5
 907 256 907 256 929.5 233.5 c 128,-1,6
 952 211 952 211 952 178 c 2,7,-1
 952 -6 l 2,8,9
 952 -39 952 -39 929.5 -61.5 c 128,-1,10
 907 -84 907 -84 874 -84 c 2,11,-1
 78 -84 l 2,12,13
 45 -84 45 -84 22.5 -61.5 c 128,-1,14
 0 -39 0 -39 0 -6 c 2,15,-1
 0 178 l 2,16,17
 0 211 0 211 22.5 233.5 c 128,-1,18
 45 256 45 256 78 256 c 2,19,-1
 874 256 l 2,4,5
113 101 m 0,20,21
 127 101 127 101 138.5 112 c 128,-1,22
 150 123 150 123 150 137 c 0,23,24
 150 172 150 172 113 172 c 0,25,26
 78 172 78 172 78 137 c 0,27,28
 78 101 78 101 113 101 c 0,20,21
215 172 m 0,29,30
 201 172 201 172 190.5 162 c 128,-1,31
 180 152 180 152 180 137.5 c 128,-1,32
 180 123 180 123 190.5 112 c 128,-1,33
 201 101 201 101 215 101 c 128,-1,34
 229 101 229 101 240.5 112 c 128,-1,35
 252 123 252 123 252 137 c 0,36,37
 252 172 252 172 215 172 c 0,29,30
319 101 m 0,38,39
 332 101 332 101 343 112 c 128,-1,40
 354 123 354 123 354 137.5 c 128,-1,41
 354 152 354 152 344 162 c 128,-1,42
 334 172 334 172 319 172 c 0,43,44
 283 172 283 172 283 139 c 0,45,46
 283 138 283 138 283 137 c 0,47,48
 283 123 283 123 293 112 c 128,-1,49
 303 101 303 101 319 101 c 0,38,39
422 101 m 0,50,51
 457 101 457 101 457 135 c 0,52,53
 457 136 457 136 457 137 c 0,54,55
 457 150 457 150 446.5 161 c 128,-1,56
 436 172 436 172 422 172 c 0,57,58
 385 172 385 172 385 137 c 0,59,60
 385 123 385 123 396 112 c 128,-1,61
 407 101 407 101 422 101 c 0,50,51
487 137 m 0,62,63
 487 123 487 123 497.5 112 c 128,-1,64
 508 101 508 101 524.5 101 c 128,-1,65
 541 101 541 101 551 112 c 128,-1,66
 561 123 561 123 561 137 c 0,67,68
 561 172 561 172 524 172 c 128,-1,69
 487 172 487 172 487 137 c 0,62,63
563 537 m 1,70,71
 638 608 638 608 742 608 c 0,72,73
 744 608 744 608 745 608 c 0,74,75
 849 608 849 608 926 537 c 1,76,-1
 868 479 l 1,77,78
 815 528 815 528 745 529 c 0,79,80
 673 529 673 529 621 479 c 1,81,-1
 563 537 l 1,70,71
442 649 m 1,82,83
 569 770 569 770 745 770 c 0,84,85
 919 770 919 770 1047 649 c 1,86,-1
 989 592 l 1,87,88
 888 690 888 690 745 690 c 128,-1,89
 602 690 602 690 500 592 c 1,90,-1
 442 649 l 1,82,83
EndSplineSet
Validated: 1
EndChar

StartChar: smart_watch
Encoding: 48 72 48
Width: 1048
VWidth: 904
Flags: W
LayerCount: 2
Fore
SplineSet
840 830 m 1,0,-1
 840 -22 l 1,1,-1
 207 -22 l 1,2,-1
 207 830 l 1,3,-1
 840 830 l 1,0,-1
764 679 m 1,4,-1
 283 679 l 1,5,-1
 283 128 l 1,6,-1
 766 128 l 1,7,-1
 764 679 l 1,4,-1
EndSplineSet
Validated: 1
EndChar

StartChar: tv
Encoding: 49 73 49
Width: 1000
VWidth: 820
Flags: W
LayerCount: 2
Fore
SplineSet
947 750 m 2,0,1
 969 750 969 750 983.5 734 c 128,-1,2
 998 718 998 718 998 695 c 2,3,-1
 998 58 l 2,4,5
 998 35 998 35 983.5 19.5 c 128,-1,6
 969 4 969 4 947 4 c 2,7,-1
 562 4 l 1,8,-1
 562 -67 l 1,9,-1
 666 -67 l 2,10,11
 703 -67 703 -67 717 -110 c 1,12,-1
 277 -110 l 1,13,14
 291 -67 291 -67 326 -67 c 2,15,-1
 437 -67 l 1,16,-1
 437 4 l 1,17,-1
 53 4 l 2,18,19
 31 4 31 4 16.5 19.5 c 128,-1,20
 2 35 2 35 2 58 c 2,21,-1
 2 697 l 2,22,23
 2 718 2 718 16.5 734 c 128,-1,24
 31 750 31 750 53 750 c 2,25,-1
 947 750 l 2,0,1
936 681 m 1,26,-1
 61 681 l 1,27,-1
 61 72 l 1,28,-1
 936 72 l 1,29,-1
 936 681 l 1,26,-1
EndSplineSet
Validated: 1
EndChar

StartChar: mobile
Encoding: 50 74 50
Width: 1000
VWidth: 820
Flags: W
LayerCount: 2
Fore
SplineSet
848 66 m 2,0,1
 862 52 862 52 862 37 c 128,-1,2
 862 22 862 22 848 6 c 2,3,-1
 676 -164 l 2,4,5
 664 -178 664 -178 646.5 -178 c 128,-1,6
 629 -178 629 -178 617 -164 c 2,7,-1
 199 254 l 2,8,9
 186 265 186 265 186 282.5 c 128,-1,10
 186 300 186 300 199 312 c 2,11,-1
 369 484 l 2,12,13
 384 498 384 498 399 498 c 128,-1,14
 414 498 414 498 430 484 c 2,15,-1
 848 66 l 2,0,1
699 152 m 0,16,17
 691 160 691 160 675.5 160 c 128,-1,18
 660 160 660 160 650 152 c 1,19,20
 641 138 641 138 641 127 c 0,21,22
 641 113 641 113 650 103 c 0,23,24
 662 91 662 91 676 91 c 0,25,26
 691 91 691 91 699 103 c 0,27,28
 709 111 709 111 709 126.5 c 128,-1,29
 709 142 709 142 699 152 c 0,16,17
592 91 m 128,-1,31
 579 78 579 78 579 66 c 128,-1,32
 579 54 579 54 592 43 c 0,33,34
 604 33 604 33 615 33 c 0,35,36
 627 33 627 33 641 43 c 0,37,38
 650 52 650 52 650 66 c 0,39,40
 650 82 650 82 641 91 c 0,41,42
 628 104 628 104 616 104 c 0,43,30
 605 104 605 104 592 91 c 128,-1,31
580 103 m 128,-1,45
 592 115 592 115 592 127 c 0,46,47
 592 140 592 140 580 152 c 0,48,49
 569 163 569 163 555 163 c 0,50,51
 543 163 543 163 531 152 c 0,52,53
 521 143 521 143 521 127 c 0,54,55
 521 118 521 118 531 103 c 0,56,57
 539 91 539 91 554 91 c 0,58,44
 568 91 568 91 580 103 c 128,-1,45
592 211 m 0,59,60
 579 199 579 199 579 187 c 0,61,62
 579 174 579 174 592 162 c 0,63,64
 603 152 603 152 615 152 c 128,-1,65
 627 152 627 152 641 162 c 1,66,67
 650 175 650 175 650 187 c 0,68,69
 650 202 650 202 641 211 c 0,70,71
 628 224 628 224 616 224 c 0,72,73
 606 224 606 224 592 211 c 0,59,60
418 101 m 1,74,-1
 580 263 l 1,75,-1
 404 439 l 1,76,-1
 242 277 l 1,77,-1
 418 101 l 1,74,-1
496 33 m 0,78,79
 510 33 510 33 519.5 42.5 c 128,-1,80
 529 52 529 52 529 66 c 0,81,82
 529 81 529 81 520 91 c 0,83,84
 508 104 508 104 496 104 c 128,-1,85
 484 104 484 104 471 91 c 0,86,87
 461 81 461 81 461 66 c 0,88,89
 461 52 461 52 471 43 c 0,90,91
 484 33 484 33 496 33 c 0,78,79
557 -28 m 0,92,93
 570 -28 570 -28 580 -18 c 0,94,95
 592 -6 592 -6 592 6 c 0,96,97
 592 21 592 21 580 31 c 0,98,99
 567 42 567 42 555 42 c 0,100,101
 543 43 543 43 531 31 c 0,102,103
 521 21 521 21 521 7 c 0,104,105
 521 -8 521 -8 531 -18 c 128,-1,106
 541 -28 541 -28 557 -28 c 0,92,93
641 -76 m 0,107,108
 650 -67 650 -67 650 -53 c 128,-1,109
 650 -39 650 -39 641 -30 c 0,110,111
 628 -17 628 -17 616 -17 c 128,-1,112
 604 -17 604 -17 592 -30 c 0,113,114
 582 -41 582 -41 582 -54 c 0,115,116
 582 -69 582 -69 592 -76 c 0,117,118
 602 -88 602 -88 615 -88 c 0,119,120
 629 -88 629 -88 641 -76 c 0,107,108
676 -28 m 0,121,122
 689 -28 689 -28 699 -18 c 128,-1,123
 709 -8 709 -8 709 7 c 0,124,125
 709 19 709 19 699 31 c 0,126,127
 688 44 688 44 676 44 c 0,128,129
 663 44 663 44 650 31 c 0,130,131
 641 22 641 22 641 7 c 0,132,133
 641 -4 641 -4 650 -18 c 1,134,135
 664 -28 664 -28 676 -28 c 0,121,122
760 43 m 128,-1,137
 771 53 771 53 772 66 c 0,138,139
 773 80 773 80 760 92 c 128,-1,140
 747 104 747 104 735 104 c 128,-1,141
 723 104 723 104 711 91 c 0,142,143
 701 80 701 80 701 66 c 128,-1,144
 701 52 701 52 711 42.5 c 128,-1,145
 721 33 721 33 734 33 c 0,146,136
 749 33 749 33 760 43 c 128,-1,137
191 347 m 1,147,-1
 148 388 l 2,148,149
 139 398 139 398 138 410 c 128,-1,150
 137 422 137 422 148 432 c 128,-1,151
 159 442 159 442 170 442 c 0,152,153
 180 442 180 442 191 431 c 2,154,-1
 232 388 l 1,155,-1
 191 347 l 1,147,-1
309 642 m 1,156,157
 351 655 351 655 390 655 c 0,158,159
 392 655 392 655 394 655 c 0,160,-1
 504 626 l 0,161,162
 598 578 598 578 629 476 c 1,163,-1
 553 451 l 1,164,165
 531 521 531 521 467 554 c 0,166,167
 426 575 426 575 385 575 c 0,168,169
 358 574 358 574 332 566 c 1,170,-1
 309 642 l 1,156,157
543 699 m 0,171,172
 466 739 466 739 387 739 c 0,173,174
 335 739 335 739 283 722 c 1,175,-1
 260 799 l 1,176,177
 325 819 325 819 389 819 c 0,178,179
 391 819 391 819 393 819 c 2,180,181
 406 819 l 2,182,183
 486 819 486 819 578 771 c 0,184,185
 734 690 734 690 785 525 c 1,186,-1
 709 502 l 1,187,188
 666 635 666 635 543 699 c 0,171,172
EndSplineSet
Validated: 1
EndChar

StartChar: phone
Encoding: 51 75 51
Width: 1000
VWidth: 820
Flags: W
LayerCount: 2
Fore
SplineSet
561 109 m 0,0,1
 568 115 568 115 578 123 c 128,-1,2
 588 131 588 131 594 134 c 1,3,-1
 756 -69 l 1,4,5
 726 -94 726 -94 668 -110 c 0,6,7
 619 -124 619 -124 590 -124 c 0,8,9
 582 -125 582 -125 574 -123 c 1,10,11
 514 -84 514 -84 438 10 c 0,12,13
 366 101 366 101 307 216 c 0,14,15
 184 456 184 456 184 616 c 0,16,17
 184 657 184 657 254 707 c 0,18,19
 293 738 293 738 338 752 c 1,20,-1
 406 498 l 1,21,22
 376 491 376 491 369 486 c 0,23,24
 349 472 349 472 349 451 c 0,25,26
 350 440 350 440 354 429 c 1,27,-1
 510 129 l 2,28,29
 522 104 522 104 542 104 c 0,30,31
 551 104 551 104 561 109 c 0,0,1
414 763 m 2,32,33
 436 763 436 763 437 742 c 1,34,-1
 486 549 l 2,35,36
 487 544 487 544 487 540 c 0,37,38
 486 523 486 523 475 517 c 1,39,-1
 434 507 l 1,40,-1
 367 756 l 1,41,-1
 414 763 l 2,32,33
650 174 m 2,42,43
 656 177 656 177 661 177 c 0,44,45
 672 177 672 177 684 166 c 2,46,-1
 812 7 l 2,47,48
 818 -2 818 -2 818 -11 c 0,49,50
 817 -20 817 -20 811 -28 c 2,51,-1
 781 -55 l 1,52,-1
 619 150 l 1,53,-1
 650 174 l 2,42,43
EndSplineSet
Validated: 1
EndChar

StartChar: folder
Encoding: 52 80 52
Width: 1050
Flags: W
LayerCount: 2
Fore
SplineSet
953 579 m 0,0,1
 971 557 971 557 971 530 c 0,2,3
 971 522 971 522 970 513 c 0,4,5
 969 506 969 506 963 473 c 128,-1,6
 957 440 957 440 949.5 394.5 c 128,-1,7
 942 349 942 349 932.5 297.5 c 128,-1,8
 923 246 923 246 914.5 200 c 128,-1,9
 906 154 906 154 899.5 120 c 128,-1,10
 893 86 893 86 892 78 c 0,11,12
 887 53 887 53 877.5 38 c 128,-1,13
 868 23 868 23 855.5 14 c 128,-1,14
 843 5 843 5 829 2 c 128,-1,15
 815 -1 815 -1 802 -1 c 2,16,-1
 507 -1 l 1,17,-1
 151 -1 l 2,18,19
 135 -1 135 -1 115.5 4 c 128,-1,20
 96 9 96 9 83 28 c 0,21,22
 76 36 76 36 73.5 44.5 c 128,-1,23
 71 53 71 53 70 63 c 2,24,-1
 70 65 l 2,25,26
 70 68 70 68 69 72 c 128,-1,27
 68 76 68 76 70 78 c 2,28,-1
 70 715 l 2,29,30
 70 725 70 725 75 737 c 128,-1,31
 80 749 80 749 89.5 759 c 128,-1,32
 99 769 99 769 113.5 775.5 c 128,-1,33
 128 782 128 782 145 782 c 2,34,-1
 239 782 l 2,35,36
 263 783 263 783 280.5 783 c 128,-1,37
 298 783 298 783 303 783 c 0,38,39
 338 783 338 783 355.5 767.5 c 128,-1,40
 373 752 373 752 381 740 c 0,41,42
 385 734 385 734 388 729 c 0,43,44
 394 719 394 719 398.5 714.5 c 128,-1,45
 403 710 403 710 413 710 c 2,46,-1
 651 710 l 1,47,-1
 848 710 l 2,48,49
 882 710 882 710 903 692 c 0,50,51
 921 672 921 672 922 643 c 2,52,-1
 922 598 l 1,53,54
 939 593 939 593 953 579 c 0,0,1
145 731 m 0,55,56
 132 731 132 731 126.5 723.5 c 128,-1,57
 121 716 121 716 120 714 c 2,58,-1
 120 344 l 1,59,60
 125 372 125 372 129.5 397 c 128,-1,61
 134 422 134 422 138 443 c 0,62,63
 145 483 145 483 150 509 c 128,-1,64
 155 535 155 535 157 540 c 0,65,66
 164 571 164 571 179 584 c 0,67,68
 197 602 197 602 229 603 c 2,69,-1
 871 603 l 1,70,-1
 871 643 l 2,71,72
 871 651 871 651 868 654 c 0,73,74
 863 659 863 659 848 659 c 2,75,-1
 651 659 l 1,76,-1
 413 659 l 2,77,78
 398 659 398 659 387 664 c 128,-1,79
 376 669 376 669 367.5 675.5 c 128,-1,80
 359 682 359 682 353.5 689 c 128,-1,81
 348 696 348 696 345 702 c 0,82,83
 344 706 344 706 340 709 c 0,84,85
 334 719 334 719 325.5 726 c 128,-1,86
 317 733 317 733 303 733 c 2,87,-1
 240 733 l 2,88,89
 211 731 211 731 182.5 731 c 128,-1,90
 154 731 154 731 145 731 c 0,55,56
920 520 m 0,91,92
 922 536 922 536 914 545 c 0,93,94
 910 550 910 550 904 552 c 128,-1,95
 898 554 898 554 892 554 c 2,96,-1
 229 554 l 2,97,98
 222 554 222 554 215.5 550.5 c 128,-1,99
 209 547 209 547 206 530 c 0,100,101
 205 525 205 525 200 498 c 128,-1,102
 195 471 195 471 187 434 c 0,103,104
 176 373 176 373 165 313 c 128,-1,105
 154 253 154 253 144.5 205 c 128,-1,106
 135 157 135 157 129 124 c 128,-1,107
 123 91 123 91 121 84 c 0,108,109
 120 82 120 82 120 77 c 2,110,-1
 120 68 l 2,111,112
 120 65 120 65 122 57 c 0,113,114
 126 54 126 54 132.5 51.5 c 128,-1,115
 139 49 139 49 151 49 c 2,116,-1
 507 49 l 1,117,-1
 802 49 l 2,118,119
 817 49 817 49 827.5 55.5 c 128,-1,120
 838 62 838 62 843 87 c 0,121,122
 844 95 844 95 850.5 128.5 c 128,-1,123
 857 162 857 162 865 207.5 c 128,-1,124
 873 253 873 253 882 305 c 128,-1,125
 891 357 891 357 899.5 402 c 128,-1,126
 908 447 908 447 913.5 480 c 128,-1,127
 919 513 919 513 920 520 c 0,91,92
EndSplineSet
Validated: 1
EndChar

StartChar: settings
Encoding: 53 81 53
Width: 1046
VWidth: 904
Flags: W
LayerCount: 2
Fore
SplineSet
938 284 m 256,0,1
 947 277 947 277 943 269 c 0,2,3
 937 254 937 254 930.5 237 c 128,-1,4
 924 220 924 220 915 204 c 0,5,6
 911 195 911 195 902 195 c 0,7,8
 889 197 889 197 877 198 c 0,9,10
 855 198 855 198 836 191 c 0,11,12
 806 180 806 180 782 155 c 0,13,14
 767 141 767 141 755 124.5 c 128,-1,15
 743 108 743 108 738 88 c 0,16,17
 736 81 736 81 735 73 c 128,-1,18
 734 65 734 65 733 58 c 0,19,20
 734 49 734 49 735 40.5 c 128,-1,21
 736 32 736 32 738 23 c 0,22,23
 740 12 740 12 731 8 c 0,24,25
 716 2 716 2 700 -4.5 c 128,-1,26
 684 -11 684 -11 668 -19 c 0,27,28
 655 -24 655 -24 646 -12 c 0,29,30
 614 38 614 38 557 54 c 0,31,32
 539 59 539 59 521 59 c 0,33,34
 506 59 506 59 492 56 c 0,35,36
 460 48 460 48 432 25 c 0,37,38
 422 17 422 17 412.5 7 c 128,-1,39
 403 -3 403 -3 395 -14 c 0,40,41
 388 -24 388 -24 379 -19 c 0,42,43
 362 -13 362 -13 346 -5.5 c 128,-1,44
 330 2 330 2 311 8 c 0,45,46
 303 13 303 13 306 23 c 0,47,48
 309 41 309 41 309 59 c 0,49,50
 309 65 309 65 309 71 c 0,51,52
 307 95 307 95 295 116 c 0,53,54
 277 150 277 150 248 168.5 c 128,-1,55
 219 187 219 187 181 189 c 0,56,57
 172 189 172 189 162 188 c 128,-1,58
 152 187 152 187 142 185 c 0,59,60
 131 183 131 183 129 192 c 0,61,62
 123 207 123 207 115.5 223.5 c 128,-1,63
 108 240 108 240 101 258 c 0,64,65
 95 269 95 269 106 276 c 0,66,67
 132 293 132 293 149.5 315.5 c 128,-1,68
 167 338 167 338 174 368 c 0,69,70
 179 387 179 387 179 405 c 0,71,72
 179 424 179 424 173 442 c 0,73,74
 161 476 161 476 129 503 c 0,75,76
 124 508 124 508 118.5 511.5 c 128,-1,77
 113 515 113 515 106 519 c 0,78,79
 96 525 96 525 101 535 c 0,80,81
 107 551 107 551 114 567 c 128,-1,82
 121 583 121 583 127 599 c 0,83,84
 132 610 132 610 144 608 c 0,85,86
 155 606 155 606 166 606 c 0,87,88
 217 606 217 606 259 644 c 0,89,90
 270 655 270 655 281.5 668 c 128,-1,91
 293 681 293 681 299 696 c 0,92,93
 310 721 310 721 310 747 c 0,94,95
 310 762 310 762 306 777 c 0,96,97
 302 791 302 791 317 798 c 0,98,99
 331 803 331 803 346 809.5 c 128,-1,100
 361 816 361 816 377 822 c 0,101,102
 389 828 389 828 395 816 c 0,103,104
 413 788 413 788 438.5 770.5 c 128,-1,105
 464 753 464 753 497 747 c 0,106,107
 511 745 511 745 523 745 c 0,108,109
 573 745 573 745 613 780 c 0,110,111
 624 788 624 788 632.5 799 c 128,-1,112
 641 810 641 810 650 820 c 0,113,114
 652 822 652 822 655.5 823.5 c 128,-1,115
 659 825 659 825 663 824 c 0,116,117
 680 816 680 816 698 809 c 128,-1,118
 716 802 716 802 734 793 c 0,119,120
 736 792 736 792 737 788 c 128,-1,121
 738 784 738 784 738 781 c 0,122,123
 737 771 737 771 735.5 759.5 c 128,-1,124
 734 748 734 748 735 737 c 0,125,126
 737 700 737 700 756.5 675 c 128,-1,127
 776 650 776 650 803 631 c 0,128,129
 836 606 836 606 876 606 c 0,130,131
 888 606 888 606 900 608 c 0,132,133
 913 611 913 611 916 598 c 0,134,135
 923 584 923 584 929.5 568 c 128,-1,136
 936 552 936 552 943 535 c 0,137,138
 949 526 949 526 936 518 c 0,139,140
 925 509 925 509 913 498.5 c 128,-1,141
 901 488 901 488 891 477 c 0,142,143
 864 444 864 444 864 405 c 0,144,145
 864 400 864 400 864 394 c 0,146,147
 868 349 868 349 902 314 c 0,148,149
 910 307 910 307 919.5 299 c 128,-1,150
 929 291 929 291 938 284 c 256,0,1
521 185 m 0,151,152
 565 185 565 185 604.5 202.5 c 128,-1,153
 644 220 644 220 673.5 249 c 128,-1,154
 703 278 703 278 720.5 317.5 c 128,-1,155
 738 357 738 357 738 401 c 256,156,157
 738 445 738 445 720.5 484.5 c 128,-1,158
 703 524 703 524 674.5 553.5 c 128,-1,159
 646 583 646 583 606.5 600.5 c 128,-1,160
 567 618 567 618 523 618 c 256,161,162
 479 618 479 618 439 600.5 c 128,-1,163
 399 583 399 583 370 554 c 128,-1,164
 341 525 341 525 323.5 485.5 c 128,-1,165
 306 446 306 446 306 402 c 256,166,167
 306 358 306 358 323.5 318.5 c 128,-1,168
 341 279 341 279 369.5 250 c 128,-1,169
 398 221 398 221 437.5 203.5 c 128,-1,170
 477 186 477 186 521 185 c 0,151,152
EndSplineSet
Validated: 1
EndChar

StartChar: slider_on
Encoding: 54 82 54
Width: 1048
VWidth: 904
Flags: W
LayerCount: 2
Fore
SplineSet
778 666 m 2,0,1
 888 666 888 666 965 589 c 256,2,3
 1042 512 1042 512 1042 407 c 0,4,5
 1042 405 1042 405 1042 404 c 0,6,7
 1042 295 1042 295 965 218 c 256,8,9
 887 140 887 140 778 140 c 2,10,-1
 270 140 l 2,11,12
 161 140 161 140 84 218 c 256,13,14
 6 296 6 296 6 404 c 0,15,16
 6 511 6 511 84 589 c 256,17,18
 161 666 161 666 267 666 c 0,19,20
 269 666 269 666 270 666 c 2,21,-1
 778 666 l 2,0,1
319 406 m 0,22,23
 319 430 319 430 306 447 c 0,24,25
 295 462 295 462 272 474 c 0,26,27
 258 481 258 481 242 481 c 0,28,29
 236 481 236 481 230 480 c 0,30,31
 208 476 208 476 190 458 c 0,32,33
 175 443 175 443 172 420 c 0,34,35
 171 412 171 412 171 405 c 0,36,37
 170 393 170 393 176 380 c 0,38,39
 185 361 185 361 202 348 c 128,-1,40
 219 335 219 335 244 335 c 0,41,42
 277 335 277 335 298 355.5 c 128,-1,43
 319 376 319 376 319 406 c 0,22,23
475 476 m 1,44,-1
 444 476 l 1,45,-1
 444 390 l 1,46,-1
 379 476 l 1,47,-1
 350 476 l 1,48,-1
 350 337 l 1,49,-1
 381 337 l 1,50,-1
 381 427 l 1,51,-1
 449 337 l 1,52,-1
 475 337 l 1,53,-1
 475 476 l 1,44,-1
979 402 m 0,54,55
 979 445 979 445 963.5 482.5 c 128,-1,56
 948 520 948 520 920 547.5 c 128,-1,57
 892 575 892 575 854.5 591 c 128,-1,58
 817 607 817 607 774 607 c 0,59,60
 732 607 732 607 695 591 c 128,-1,61
 658 575 658 575 630.5 547.5 c 128,-1,62
 603 520 603 520 587 482.5 c 128,-1,63
 571 445 571 445 571 402 c 0,64,65
 571 360 571 360 587 323.5 c 128,-1,66
 603 287 603 287 630.5 259 c 128,-1,67
 658 231 658 231 695 215 c 128,-1,68
 732 199 732 199 774 199 c 0,69,70
 817 199 817 199 854.5 215 c 128,-1,71
 892 231 892 231 920 259 c 128,-1,72
 948 287 948 287 963.5 323.5 c 128,-1,73
 979 360 979 360 979 402 c 0,54,55
203 406 m 0,74,75
 203 418 203 418 210 430 c 0,76,77
 217 443 217 443 228 447 c 0,78,79
 236 450 236 450 244 450 c 0,80,81
 260 450 260 450 274 437 c 0,82,83
 283 429 283 429 286 414 c 0,84,85
 288 401 288 401 283 390 c 128,-1,86
 278 379 278 379 267.5 371 c 128,-1,87
 257 363 257 363 244 363 c 0,88,89
 203 363 203 363 203 406 c 0,74,75
EndSplineSet
Validated: 1
EndChar

StartChar: slider_off
Encoding: 55 83 55
Width: 1048
VWidth: 904
Flags: W
LayerCount: 2
Fore
SplineSet
279 619 m 0,0,1
 369 619 369 619 432.5 555.5 c 128,-1,2
 496 492 496 492 496 404 c 0,3,4
 496 314 496 314 432.5 250.5 c 128,-1,5
 369 187 369 187 279 187 c 0,6,7
 191 187 191 187 127 250.5 c 128,-1,8
 63 314 63 314 63 404 c 0,9,10
 63 492 63 492 127 555.5 c 128,-1,11
 191 619 191 619 279 619 c 0,0,1
279 220 m 0,12,13
 357 220 357 220 410 273 c 128,-1,14
 463 326 463 326 463 404 c 0,15,16
 463 480 463 480 409.5 533.5 c 128,-1,17
 356 587 356 587 279 587 c 256,18,19
 202 587 202 587 149 533.5 c 128,-1,20
 96 480 96 480 96 404 c 0,21,22
 96 326 96 326 149 273 c 128,-1,23
 202 220 202 220 279 220 c 0,12,13
778 673 m 2,24,25
 890 673 890 673 968.5 594 c 128,-1,26
 1047 515 1047 515 1047 404.5 c 128,-1,27
 1047 294 1047 294 968 215 c 128,-1,28
 889 136 889 136 778 136 c 2,29,-1
 268 136 l 2,30,31
 156 136 156 136 78 215 c 128,-1,32
 0 294 0 294 0 404.5 c 128,-1,33
 0 515 0 515 79 594 c 128,-1,34
 158 673 158 673 268 673 c 2,35,-1
 778 673 l 2,24,25
778 165 m 2,36,37
 878 165 878 165 948 234.5 c 128,-1,38
 1018 304 1018 304 1018 404.5 c 128,-1,39
 1018 505 1018 505 948.5 574.5 c 128,-1,40
 879 644 879 644 778 644 c 2,41,-1
 268 644 l 2,42,43
 170 644 170 644 99.5 574.5 c 128,-1,44
 29 505 29 505 29 404.5 c 128,-1,45
 29 304 29 304 99.5 234.5 c 128,-1,46
 170 165 170 165 268 165 c 2,47,-1
 778 165 l 2,36,37
530 417 m 2,48,49
 530 446 530 446 551.5 467 c 128,-1,50
 573 488 573 488 606 488 c 128,-1,51
 639 488 639 488 659.5 466.5 c 128,-1,52
 680 445 680 445 680 417 c 0,53,54
 680 385 680 385 659.5 364 c 128,-1,55
 639 343 639 343 606 343 c 128,-1,56
 573 343 573 343 551.5 363.5 c 128,-1,57
 530 384 530 384 530 415 c 2,58,-1
 530 417 l 2,48,49
647 417 m 2,59,60
 647 434 647 434 636 447 c 128,-1,61
 625 460 625 460 606.5 460 c 128,-1,62
 588 460 588 460 575.5 447.5 c 128,-1,63
 563 435 563 435 563 416.5 c 128,-1,64
 563 398 563 398 575.5 385 c 128,-1,65
 588 372 588 372 606.5 372 c 128,-1,66
 625 372 625 372 636 384 c 128,-1,67
 647 396 647 396 647 415 c 2,68,-1
 647 417 l 2,59,60
711 486 m 1,69,-1
 817 486 l 1,70,-1
 817 458 l 1,71,-1
 741 458 l 1,72,-1
 741 427 l 1,73,-1
 809 427 l 1,74,-1
 809 400 l 1,75,-1
 741 400 l 1,76,-1
 741 345 l 1,77,-1
 711 345 l 1,78,-1
 711 486 l 1,69,-1
952 486 m 1,79,-1
 952 458 l 1,80,-1
 877 458 l 1,81,-1
 877 427 l 1,82,-1
 944 427 l 1,83,-1
 944 400 l 1,84,-1
 877 400 l 1,85,-1
 877 345 l 1,86,-1
 846 345 l 1,87,-1
 846 486 l 1,88,-1
 952 486 l 1,79,-1
EndSplineSet
Validated: 1
EndChar

StartChar: share
Encoding: 56 84 56
Width: 1048
VWidth: 854
Flags: W
LayerCount: 2
Fore
SplineSet
895 619 m 0,0,1
 891 551 891 551 850 518 c 128,-1,2
 809 485 809 485 756 485 c 0,3,4
 702 485 702 485 666 526 c 1,5,-1
 410 379 l 1,6,7
 412 367 412 367 412 349.5 c 128,-1,8
 412 332 412 332 406 317 c 1,9,-1
 406 313 l 1,10,-1
 653 168 l 1,11,12
 696 207 696 207 748 207 c 0,13,14
 820 207 820 207 862 141 c 0,15,16
 883 108 883 108 883 72 c 0,17,18
 883 9 883 9 831 -32 c 0,19,20
 794 -61 794 -61 748 -61 c 0,21,22
 735 -61 735 -61 717 -57 c 0,23,24
 664 -45 664 -45 633 2 c 0,25,26
 613 33 613 33 613 68 c 0,27,28
 614 85 614 85 618 102 c 1,29,-1
 365 252 l 1,30,31
 326 219 326 219 279 219 c 0,32,33
 259 219 259 219 246 223 c 0,34,35
 194 239 194 239 168 279 c 0,36,37
 143 318 143 318 143 345 c 0,38,39
 143 345 143 345 144 346 c 0,40,41
 144 373 144 373 147 387 c 0,42,43
 156 430 156 430 194.5 459.5 c 128,-1,44
 233 489 233 489 279 489 c 0,45,46
 286 489 286 489 311 485 c 1,47,48
 352 471 352 471 377 444 c 1,49,-1
 631 590 l 1,50,51
 628 606 628 606 628 621 c 0,52,53
 628 687 628 687 678 725 c 0,54,55
 715 754 715 754 762 754 c 0,56,57
 831 754 831 754 874 688 c 0,58,59
 895 656 895 656 895 619 c 0,0,1
EndSplineSet
Validated: 1
EndChar

StartChar: cloud
Encoding: 57 85 57
Width: 1048
VWidth: 904
Flags: W
LayerCount: 2
Fore
SplineSet
891 406 m 1,0,1
 959 390 959 390 1003 336.5 c 128,-1,2
 1047 283 1047 283 1047 214 c 0,3,4
 1047 132 1047 132 988.5 73.5 c 128,-1,5
 930 15 930 15 848 15 c 0,6,7
 785 15 785 15 733.5 51 c 128,-1,8
 682 87 682 87 662 146 c 1,9,10
 607 107 607 107 543 107 c 0,11,12
 474 107 474 107 424 146 c 1,13,14
 393 93 393 93 341 60 c 128,-1,15
 289 27 289 27 225 27 c 0,16,17
 131 27 131 27 65.5 93 c 128,-1,18
 0 159 0 159 0 253 c 0,19,20
 0 365 0 365 88 431 c 1,21,22
 53 482 53 482 53 544 c 0,23,24
 53 626 53 626 110.5 684 c 128,-1,25
 168 742 168 742 252 742 c 0,26,27
 358 742 358 742 418 652 c 1,28,29
 436 715 436 715 488.5 755 c 128,-1,30
 541 795 541 795 608 795 c 0,31,32
 682 795 682 795 736.5 749 c 128,-1,33
 791 703 791 703 805 634 c 1,34,35
 900 575 900 575 901 464 c 0,36,37
 900 437 900 437 891 406 c 1,0,1
EndSplineSet
Validated: 1
EndChar

StartChar: triangle_warning
Encoding: 58 86 58
Width: 1048
VWidth: 904
Flags: W
LayerCount: 2
Fore
SplineSet
936 173 m 2,0,1
 947 150 947 150 948 124 c 0,2,3
 948 95 948 95 936 75 c 0,4,5
 906 26 906 26 851 25 c 2,6,-1
 196 25 l 2,7,8
 144 25 144 25 113 75 c 0,9,10
 98 99 98 99 98 124 c 0,11,12
 98 148 98 148 113 173 c 2,13,-1
 440 730 l 2,14,15
 467 776 467 776 524 777 c 0,16,17
 579 777 579 777 608 730 c 2,18,-1
 936 173 l 2,0,1
575 214 m 1,19,-1
 473 214 l 1,20,-1
 473 111 l 1,21,-1
 575 111 l 1,22,-1
 575 214 l 1,19,-1
589 607 m 1,23,-1
 458 607 l 1,24,-1
 479 269 l 1,25,-1
 569 269 l 1,26,-1
 589 607 l 1,23,-1
EndSplineSet
Validated: 1
EndChar

StartChar: edit
Encoding: 59 87 59
Width: 834
VWidth: 950
Flags: W
LayerCount: 2
Fore
SplineSet
625 649 m 1,0,1
 602 666 l 0,2,3
 578 682 578 682 550.5 703.5 c 128,-1,4
 523 725 523 725 500 742 c 0,5,-1
 477 759 l 1,6,-1
 543 843 l 1,7,-1
 689 733 l 1,8,-1
 625 649 l 1,0,1
238 81 m 1,9,-1
 689 81 l 1,10,-1
 689 18 l 1,11,-1
 238 18 l 1,12,-1
 238 81 l 1,9,-1
689 225 m 1,13,-1
 689 163 l 1,14,-1
 400 163 l 1,15,-1
 400 225 l 1,16,-1
 689 225 l 1,13,-1
270 173 m 1,17,-1
 98 91 l 1,18,-1
 121 282 l 1,19,-1
 455 731 l 1,20,-1
 488 706 l 1,21,-1
 152 261 l 1,22,-1
 139 272 l 1,23,-1
 125 177 l 1,24,-1
 168 143 l 1,25,-1
 252 184 l 1,26,-1
 176 241 l 1,27,-1
 512 688 l 1,28,-1
 604 622 l 1,29,-1
 270 173 l 1,17,-1
EndSplineSet
Validated: 1
EndChar

StartChar: list
Encoding: 60 88 60
Width: 834
VWidth: 950
Flags: W
LayerCount: 2
Fore
SplineSet
182 579 m 0,0,1
 182 550 182 550 161.5 529.5 c 128,-1,2
 141 509 141 509 109 509 c 0,3,4
 80 509 80 509 59.5 529.5 c 128,-1,5
 39 550 39 550 39 579 c 0,6,7
 39 610 39 610 59.5 630.5 c 128,-1,8
 80 651 80 651 109 651 c 0,9,10
 141 651 141 651 161.5 630.5 c 128,-1,11
 182 610 182 610 182 579 c 0,0,1
182 350 m 0,12,13
 182 321 182 321 161.5 300.5 c 128,-1,14
 141 280 141 280 109 280 c 0,15,16
 80 280 80 280 59.5 300.5 c 128,-1,17
 39 321 39 321 39 350 c 0,18,19
 39 382 39 382 59.5 402.5 c 128,-1,20
 80 423 80 423 109 423 c 0,21,22
 141 423 141 423 161.5 402.5 c 128,-1,23
 182 382 182 382 182 350 c 0,12,13
182 136 m 0,24,25
 182 104 182 104 161.5 83.5 c 128,-1,26
 141 63 141 63 109 63 c 0,27,28
 80 63 80 63 59.5 83.5 c 128,-1,29
 39 104 39 104 39 136 c 0,30,31
 39 165 39 165 59.5 186.5 c 128,-1,32
 80 208 80 208 109 208 c 0,33,34
 141 208 141 208 161.5 186.5 c 128,-1,35
 182 165 182 165 182 136 c 0,24,25
270 630 m 1,36,-1
 787 630 l 1,37,-1
 787 526 l 1,38,-1
 270 526 l 1,39,-1
 270 630 l 1,36,-1
270 415 m 1,40,-1
 787 415 l 1,41,-1
 787 311 l 1,42,-1
 270 311 l 1,43,-1
 270 415 l 1,40,-1
270 186 m 1,44,-1
 787 186 l 1,45,-1
 787 81 l 1,46,-1
 270 81 l 1,47,-1
 270 186 l 1,44,-1
EndSplineSet
Validated: 1
EndChar

StartChar: calendar
Encoding: 61 89 61
Width: 1048
VWidth: 904
Flags: W
LayerCount: 2
Fore
SplineSet
874 777 m 2,0,1
 913 777 913 777 942 744 c 128,-1,2
 971 711 971 711 971 664 c 2,3,-1
 971 -7 l 2,4,5
 971 -54 971 -54 942 -87 c 128,-1,6
 913 -120 913 -120 874 -120 c 2,7,-1
 170 -120 l 2,8,9
 131 -120 131 -120 102.5 -87.5 c 128,-1,10
 74 -55 74 -55 74 -7 c 2,11,-1
 74 664 l 2,12,13
 74 711 74 711 102.5 744 c 128,-1,14
 131 777 131 777 170 777 c 2,15,-1
 260 777 l 1,16,17
 286 804 286 804 320 804 c 0,18,19
 321 804 321 804 322 804 c 2,20,-1
 422 804 l 1,21,22
 420 810 420 810 420 824 c 0,23,24
 420 867 420 867 449.5 897 c 128,-1,25
 479 927 479 927 522 927 c 128,-1,26
 565 927 565 927 596 896 c 128,-1,27
 627 865 627 865 627 824 c 0,28,29
 627 811 627 811 625 804 c 1,30,-1
 725 804 l 2,31,32
 761 804 761 804 786 777 c 1,33,-1
 874 777 l 2,0,1
907 486 m 1,34,-1
 768 486 l 1,35,-1
 768 316 l 1,36,-1
 907 316 l 1,37,-1
 907 486 l 1,34,-1
729 486 m 1,38,-1
 543 486 l 1,39,-1
 543 316 l 1,40,-1
 729 316 l 1,41,-1
 729 486 l 1,38,-1
504 486 m 1,42,-1
 317 486 l 1,43,-1
 317 316 l 1,44,-1
 504 316 l 1,45,-1
 504 486 l 1,42,-1
279 486 m 1,46,-1
 139 486 l 1,47,-1
 139 316 l 1,48,-1
 279 316 l 1,49,-1
 279 486 l 1,46,-1
139 107 m 1,50,-1
 279 107 l 1,51,-1
 279 277 l 1,52,-1
 139 277 l 1,53,-1
 139 107 l 1,50,-1
317 107 m 1,54,-1
 504 107 l 1,55,-1
 504 277 l 1,56,-1
 317 277 l 1,57,-1
 317 107 l 1,54,-1
317 68 m 1,58,-1
 317 -57 l 1,59,-1
 504 -57 l 1,60,-1
 504 68 l 1,61,-1
 317 68 l 1,58,-1
543 -57 m 1,62,-1
 729 -57 l 1,63,-1
 729 68 l 1,64,-1
 543 68 l 1,65,-1
 543 -57 l 1,62,-1
729 107 m 1,66,-1
 729 277 l 1,67,-1
 543 277 l 1,68,-1
 543 107 l 1,69,-1
 729 107 l 1,66,-1
768 107 m 1,70,-1
 907 107 l 1,71,-1
 907 277 l 1,72,-1
 768 277 l 1,73,-1
 768 107 l 1,70,-1
471 824 m 0,74,75
 471 817 471 817 475 804 c 1,76,-1
 571 804 l 1,77,78
 575 816 575 816 575 824 c 0,79,80
 575 848 575 848 560 861.5 c 128,-1,81
 545 875 545 875 522.5 875 c 128,-1,82
 500 875 500 875 485.5 861.5 c 128,-1,83
 471 848 471 848 471 824 c 0,74,75
172 714 m 2,84,85
 158 714 158 714 148.5 699.5 c 128,-1,86
 139 685 139 685 139 664 c 2,87,-1
 139 523 l 1,88,-1
 907 523 l 1,89,-1
 907 664 l 2,90,91
 907 684 907 684 898 699 c 128,-1,92
 889 714 889 714 874 714 c 2,93,-1
 807 714 l 1,94,95
 805 681 805 681 781.5 658.5 c 128,-1,96
 758 636 758 636 725 636 c 2,97,-1
 322 636 l 2,98,99
 288 636 288 636 265 658.5 c 128,-1,100
 242 681 242 681 240 714 c 1,101,-1
 172 714 l 2,84,85
139 -7 m 2,102,103
 139 -26 139 -26 148.5 -41.5 c 128,-1,104
 158 -57 158 -57 172 -57 c 2,105,-1
 279 -57 l 1,106,-1
 279 68 l 1,107,-1
 139 68 l 1,108,-1
 139 -7 l 2,102,103
874 -57 m 2,109,110
 888 -57 888 -57 897.5 -42.5 c 128,-1,111
 907 -28 907 -28 907 -7 c 2,112,-1
 907 68 l 1,113,-1
 768 68 l 1,114,-1
 768 -57 l 1,115,-1
 874 -57 l 2,109,110
436 32 m 0,116,117
 448 20 448 20 448.5 3 c 128,-1,118
 449 -14 449 -14 436.5 -26 c 128,-1,119
 424 -38 424 -38 407.5 -38 c 128,-1,120
 391 -38 391 -38 379 -26 c 128,-1,121
 367 -14 367 -14 367 2.5 c 128,-1,122
 367 19 367 19 379 31.5 c 128,-1,123
 391 44 391 44 407.5 43.5 c 128,-1,124
 424 43 424 43 436 32 c 0,116,117
864 220 m 256,125,126
 876 208 876 208 876.5 191.5 c 128,-1,127
 877 175 877 175 864 163.5 c 128,-1,128
 851 152 851 152 835 152 c 128,-1,129
 819 152 819 152 808 163.5 c 128,-1,130
 797 175 797 175 797 191 c 128,-1,131
 797 207 797 207 808 219.5 c 128,-1,132
 819 232 819 232 835.5 232 c 128,-1,133
 852 232 852 232 864 220 c 256,125,126
236 427 m 0,134,135
 247 416 247 416 247.5 399 c 128,-1,136
 248 382 248 382 235.5 369.5 c 128,-1,137
 223 357 223 357 206.5 357 c 128,-1,138
 190 357 190 357 178 369.5 c 128,-1,139
 166 382 166 382 166 398.5 c 128,-1,140
 166 415 166 415 178 427 c 128,-1,141
 190 439 190 439 207 439 c 128,-1,142
 224 439 224 439 236 427 c 0,134,135
EndSplineSet
Validated: 1
EndChar

StartChar: trash
Encoding: 62 90 62
Width: 1048
VWidth: 854
Flags: W
LayerCount: 2
Fore
SplineSet
803 711 m 2,0,1
 822 711 822 711 836.5 696 c 128,-1,2
 851 681 851 681 851 661 c 128,-1,3
 851 641 851 641 837 626.5 c 128,-1,4
 823 612 823 612 803 612 c 2,5,-1
 246 612 l 2,6,7
 227 612 227 612 211.5 626.5 c 128,-1,8
 196 641 196 641 196 661 c 128,-1,9
 196 681 196 681 210.5 696 c 128,-1,10
 225 711 225 711 246 711 c 2,11,-1
 416 711 l 1,12,-1
 416 737 l 2,13,14
 416 757 416 757 430 771.5 c 128,-1,15
 444 786 444 786 465 786 c 2,16,-1
 598 786 l 2,17,18
 618 786 618 786 632.5 772 c 128,-1,19
 647 758 647 758 647 737 c 2,20,-1
 647 711 l 1,21,-1
 803 711 l 2,0,1
274 -23 m 0,22,23
 262 102 262 102 246 569 c 1,24,-1
 803 569 l 1,25,-1
 774 -23 l 2,26,27
 766 -109 766 -109 649 -109 c 2,28,-1
 397 -109 l 2,29,30
 282 -109 282 -109 274 -23 c 0,22,23
645 4 m 2,31,32
 645 -27 645 -27 678 -31 c 0,33,34
 692 -31 692 -31 701.5 -21.5 c 128,-1,35
 711 -12 711 -12 711 0 c 2,36,-1
 729 508 l 1,37,-1
 666 512 l 1,38,-1
 645 4 l 2,31,32
498 2 m 2,39,40
 498 -31 498 -31 530 -31 c 0,41,42
 542 -31 542 -31 552.5 -21.5 c 128,-1,43
 563 -12 563 -12 563 2 c 2,44,-1
 563 510 l 1,45,-1
 498 510 l 1,46,-1
 498 2 l 2,39,40
330 508 m 1,47,-1
 348 2 l 2,48,49
 348 -31 348 -31 375 -31 c 0,50,51
 377 -31 377 -31 381 -31 c 0,52,53
 414 -31 414 -31 414 2 c 0,54,55
 414 3 414 3 414 4 c 2,56,-1
 393 512 l 1,57,-1
 330 508 l 1,47,-1
EndSplineSet
Validated: 1
EndChar

StartChar: profile
Encoding: 63 91 63
Width: 1000
VWidth: 870
Flags: W
LayerCount: 2
Fore
SplineSet
764 128 m 1,0,1
 857 111 857 111 926 62 c 0,2,3
 996 13 996 13 996 -50 c 2,4,-1
 996 -128 l 1,5,-1
 2 -128 l 1,6,-1
 2 -50 l 2,7,8
 2 13 2 13 71.5 62.5 c 128,-1,9
 141 112 141 112 215 132.5 c 128,-1,10
 289 153 289 153 334 153 c 1,11,-1
 334 243 l 1,12,13
 307 261 307 261 279.5 310.5 c 128,-1,14
 252 360 252 360 242 413 c 1,15,16
 197 458 197 458 197 499 c 0,17,18
 197 550 197 550 236 557 c 1,19,-1
 236 649 l 2,20,21
 236 739 236 739 322 803.5 c 128,-1,22
 408 868 408 868 498 868 c 128,-1,23
 588 868 588 868 674 803.5 c 128,-1,24
 760 739 760 739 760 649 c 2,25,-1
 760 557 l 1,26,-1
 770 554 l 2,27,28
 782 551 782 551 791 537 c 0,29,30
 801 521 801 521 801 502 c 0,31,32
 801 501 801 501 801 499 c 0,33,34
 801 458 801 458 762 419 c 0,35,-1
 756 413 l 0,36,37
 741 355 741 355 716 312 c 0,38,39
 689 263 689 263 662 243 c 1,40,-1
 662 153 l 1,41,42
 760 130 760 130 764 128 c 1,0,1
EndSplineSet
Validated: 1
EndChar
